<?xml version="1.0" encoding="utf-8"?>
<svg id="master-artboard" viewBox="0 0 1400 980" version="1.1" xmlns="http://www.w3.org/2000/svg" x="0px" y="0px" enable-background="new 0 0 1400 980" width="1400px" height="980px">
<path d="M 0 0 H 1400 V 980 H 0 V 0 Z" fill="#FFFFFF" transform="matrix(0.9991248846054076, 0, 0, 0.9991248846054076, 6.126615047454833, -8.599090576171873)"/><g transform="matrix(1, 0, 0, 1, 0, -7.105427357601002e-15)">
			<g>
				<g>
					<path fill="#939598" d="M219.6,206.6c-11,2-22.1-5.4-24.7-16.2c2.6,10.9,2.6,28,0.2,38C197.5,218.4,208.5,208.6,219.6,206.6z"/>
					<path fill="#939598" d="M190.2,235.4c3.4,4.1,8.2,6.9,13.5,7.7c-6.8-1.3-10.6-7-8.7-14.7C193.7,233.8,192,236.1,190.2,235.4z"/>
					<path fill="#FFFFFF" d="M275.7,196.6c1.1-0.2,2.2-0.3,3.3-0.3l-0.1-0.5C277.9,196.1,276.8,196.4,275.7,196.6z"/>
					<path fill="#939598" d="M273.2,197.1l5.8-0.8c9.1-0.2,14.5,6,12.2,15c2.5-10,2.4-27.1-0.2-38&#10;&#9;&#9;&#9;&#9;&#9;&#9;C293.4,183.1,282.4,193.8,273.2,197.1z"/>
					<path fill="#FFFFFF" d="M288.7,217.4c0.9-1.1,1.8-3.1,2.5-6.1C290.7,213.3,289.9,215.4,288.7,217.4z"/>
					<path fill="#FFFFFF" d="M210.6,243.1c-2.3,0.4-4.6,0.4-6.9,0.1C205.8,243.5,208.1,243.5,210.6,243.1z"/>
					<path fill="#BCBEC0" d="M195,228.4c-1.9,7.7,1.8,13.4,8.7,14.7c2.2,0.4,4.6,0.4,6.9-0.1l56.1-10c0.4-0.1,0.8-0.2,1.2-0.3&#10;&#9;&#9;&#9;&#9;&#9;&#9;c8.3-1.9,16.5-8.2,20.8-15.4c1.2-2,2-4,2.5-6.1c2.2-9-3.2-15.2-12.2-15c-1,0-2.2,0.1-3.3,0.3l-56.1,10&#10;&#9;&#9;&#9;&#9;&#9;&#9;C208.5,208.6,197.5,218.4,195,228.4z"/>
					<path fill="#FFFFFF" d="M173.7,137.4c0.5-2.1,1.4-4.1,2.5-6.1C175.3,132.4,174.5,134.4,173.7,137.4z"/>
					<path fill="#939598" d="M198.2,115.6c-8.8,1.6-17.5,8.1-22,15.7c2.2-2.6,4.8,0,6.6,7.7C180.3,128.1,187.2,117.5,198.2,115.6z"/>
					<path fill="#D1D3D4" d="M182.8,139l3.1,13.4l0.1,0.5l8.8,37.5c2.6,10.9,13.7,18.2,24.7,16.2l56.1-10c1.1-0.2,2.2-0.5,3.2-0.8&#10;&#9;&#9;&#9;&#9;&#9;&#9;c9.1-3.2,14.5-12.7,12.2-22.5l-12-51.4c-0.8-3.2-2.2-6.1-4.3-8.6c-3.4-4.1-8.2-6.9-13.5-7.8c-2.2-0.4-4.6-0.4-6.9,0.1l-56.1,10&#10;&#9;&#9;&#9;&#9;&#9;&#9;C187.2,117.5,180.3,128.1,182.8,139z"/>
					<path fill="#BCBEC0" d="M186,152.4l-3.1-13.4c-1.8-7.7-4.4-10.3-6.6-7.7c-1.2,2-2,4-2.5,6.1c-2.5,10-2.4,27.1,0.2,38l12.1,51.4&#10;&#9;&#9;&#9;&#9;&#9;&#9;c0.7,3.2,2.2,6.1,4.3,8.5c1.8,0.7,3.5-1.6,4.8-6.9c2.5-10,2.4-27.2-0.2-38l-8.8-37.5L186,152.4z"/>
					<path fill="#58595B" d="M180,153.5c-1.9,2.2-2.4,7.9-1.1,12.9c1.3,4.9,3.8,7.2,5.7,5c1.9-2.2,2.4-7.9,1.1-12.9&#10;&#9;&#9;&#9;&#9;&#9;&#9;C184.4,153.5,181.9,151.3,180,153.5z"/>
					<path fill="#58595B" d="M184.1,188.3c-1.9,2.2-2.4,7.9-1.1,12.9c1.3,4.9,3.8,7.2,5.7,5c1.9-2.2,2.4-7.9,1.1-12.9&#10;&#9;&#9;&#9;&#9;&#9;&#9;C188.5,188.3,186,186.1,184.1,188.3z"/>
					<path fill="#58595B" d="M218.8,212.4c-6,2.6-8.4,7.1-5.4,10.2c3,3.1,10.3,3.4,16.3,0.8c6-2.6,8.4-7.2,5.4-10.2&#10;&#9;&#9;&#9;&#9;&#9;&#9;C232.1,210.1,224.8,209.7,218.8,212.4z"/>
					<path fill="#58595B" d="M241.2,221.4c-6,2.6-8.4,7.1-5.4,10.2c3,3.1,10.3,3.4,16.3,0.8c6-2.6,8.4-7.2,5.4-10.2&#10;&#9;&#9;&#9;&#9;&#9;&#9;C254.5,219.1,247.2,218.7,241.2,221.4z"/>
					<path fill="#58595B" d="M274,215.5c6-2.6,8.4-7.1,5.4-10.2c-3-3-10.3-3.4-16.3-0.8c-6,2.6-8.4,7.2-5.4,10.2&#10;&#9;&#9;&#9;&#9;&#9;&#9;C260.7,217.7,268,218.1,274,215.5z"/>
					<path fill="#58595B" d="M219.5,161.1c-6.8,0.9-11.3,6.1-10.1,11.6c1.2,5.4,7.8,9.1,14.6,8.2c6.8-0.9,11.3-6.1,10.1-11.5&#10;&#9;&#9;&#9;&#9;&#9;&#9;C232.8,163.8,226.3,160.1,219.5,161.1z"/>
					<path fill="#58595B" d="M213,133.4c-6.8,0.9-11.3,6.1-10.1,11.6c1.2,5.4,7.8,9.1,14.6,8.2c6.8-1,11.4-6.1,10.1-11.6&#10;&#9;&#9;&#9;&#9;&#9;&#9;C226.3,136.1,219.8,132.4,213,133.4z"/>
					<path fill="#58595B" d="M245.2,165.9c1.2,5.5,7.8,9.1,14.6,8.2c6.8-1,11.3-6.1,10.1-11.6c-1.2-5.4-7.8-9.1-14.6-8.1&#10;&#9;&#9;&#9;&#9;&#9;&#9;C248.5,155.4,244,160.5,245.2,165.9z"/>
					<path fill="#58595B" d="M238.7,138.3c1.2,5.4,7.8,9.1,14.6,8.1c6.8-0.9,11.3-6.1,10.1-11.5c-1.2-5.4-7.8-9.1-14.6-8.2&#10;&#9;&#9;&#9;&#9;&#9;&#9;C242,127.6,237.5,132.8,238.7,138.3z"/>
					<g>
						
							<path d="M 248 164.100006 H 248.6 V 239.000008 H 248 V 164.100006 Z" transform="matrix(0.1745 0.9847 -0.9847 0.1745 403.4347 -78.0699)" fill="#939598"/>
					</g>
					<g>
						<path d="M 196.5 196.8000030517578 L 181.60000610351562 133.39999389648438 L 182.60000610351562 138.1999969482422 Z" fill="#939598"/>
						<path d="M 181.3000030517578 133.39999389648438 L 182.3000030517578 138.3000030517578 L 196.10000610351562 196.89999389648438 L 196.8000030517578 196.8000030517578 L 183 138.10000610351562 L 181.89999389648438 133.3000030517578 Z" fill="#939598"/>
					</g>
					<g>
						
							<path d="M 189.600006 227.300003 H 201.400006 V 227.900003 H 189.600006 V 227.300003 Z" transform="matrix(-0.2355 0.9719 -0.9719 -0.2355 462.7274 91.2635)" fill="#939598"/>
					</g>
				</g>
				<path fill="#E6E7E8" d="M210.3,119.8c4.9-2.8,11.2-5.2,19.3-7.1l-29.3,5.4c-3.7,0.7-7.2,2.4-9.9,5.1c-3.3,3.3-6.1,8.8-4,17.2&#10;&#9;&#9;&#9;&#9;&#9;l11.8,50l-3.7-40.1C193.3,137.9,199.5,125.9,210.3,119.8z"/>
				<path fill="#E6E7E8" d="M274.2,128.8l14.3,45.5l-10.6-46.1c-4.8-24.2-26.8-18.3-26.8-18.3C269,111.5,274.2,128.8,274.2,128.8z"/>
			</g>
			<g>
				<g>
					<g>
						<path fill="#939598" d="M375.4,155.7c10.9-2.6,28-2.6,38-0.2c-10-2.5-19.8-13.5-21.8-24.5C393.6,142,386.3,153.1,375.4,155.7z&#10;&#9;&#9;&#9;&#9;&#9;&#9;&#9;"/>
						<path fill="#939598" d="M428.1,146.9c-1.3,6.8-7,10.6-14.7,8.7c5.3,1.3,7.6,3.1,6.9,4.8C424.5,157,427.3,152.2,428.1,146.9z"/>
						<path fill="#FFFFFF" d="M380.8,71.7c0.3,1,0.6,2.1,0.8,3.2c-0.2-1.1-0.3-2.2-0.3-3.3L380.8,71.7z"/>
						<path fill="#939598" d="M396.3,59.3c-10-2.5-27.1-2.4-38,0.2c9.8-2.3,20.6,8.7,23.8,17.8l-0.8-5.8&#10;&#9;&#9;&#9;&#9;&#9;&#9;&#9;C381.1,62.5,387.3,57.1,396.3,59.3z"/>
						<path fill="#FFFFFF" d="M402.4,61.9c-1.1-0.9-3.1-1.8-6.1-2.5C398.3,59.8,400.4,60.7,402.4,61.9z"/>
						<path fill="#FFFFFF" d="M428.1,140c0.4,2.3,0.4,4.6,0.1,6.9C428.5,144.8,428.5,142.5,428.1,140z"/>
						<path fill="#BCBEC0" d="M413.4,155.5c7.7,1.9,13.4-1.8,14.7-8.7c0.4-2.2,0.4-4.6-0.1-6.9l-10-56.1c-0.1-0.4-0.2-0.8-0.3-1.2&#10;&#9;&#9;&#9;&#9;&#9;&#9;&#9;c-1.9-8.3-8.2-16.5-15.4-20.8c-2-1.2-4-2-6.1-2.5c-9-2.2-15.2,3.2-15,12.2c0,1,0.1,2.2,0.3,3.3l10,56.1&#10;&#9;&#9;&#9;&#9;&#9;&#9;&#9;C393.6,142,403.4,153.1,413.4,155.5z"/>
						<path fill="#FFFFFF" d="M322.4,176.9c-2.1-0.5-4.1-1.4-6.1-2.5C317.4,175.3,319.4,176.1,322.4,176.9z"/>
						<path fill="#939598" d="M324,167.8c-10.9,2.5-21.4-4.4-23.4-15.4c1.6,8.8,8.1,17.5,15.7,22C313.7,172.1,316.3,169.5,324,167.8&#10;&#9;&#9;&#9;&#9;&#9;&#9;&#9;z"/>
						<path fill="#D1D3D4" d="M324,167.8l13.4-3.1l0.5-0.1l37.5-8.8c10.9-2.6,18.2-13.7,16.2-24.7l-10-56.1&#10;&#9;&#9;&#9;&#9;&#9;&#9;&#9;c-0.2-1.1-0.5-2.2-0.8-3.2c-3.2-9.1-12.7-14.5-22.5-12.2l-51.4,12c-3.2,0.8-6.1,2.2-8.6,4.3c-4.1,3.4-6.9,8.2-7.8,13.5&#10;&#9;&#9;&#9;&#9;&#9;&#9;&#9;c-0.4,2.2-0.4,4.6,0.1,6.9l10,56.1C302.6,163.4,313.1,170.3,324,167.8z"/>
						<path fill="#BCBEC0" d="M322.4,176.9c10,2.5,27.1,2.4,38-0.2l51.4-12.1c3.2-0.7,6.1-2.2,8.5-4.3c0.7-1.8-1.6-3.5-6.9-4.8&#10;&#9;&#9;&#9;&#9;&#9;&#9;&#9;c-10-2.5-27.2-2.4-38,0.2l-37.5,8.8l-0.5,0.1l-13.4,3.1c-7.7,1.8-10.3,4.4-7.7,6.6C318.3,175.5,320.3,176.4,322.4,176.9z"/>
						<path fill="#58595B" d="M372.2,169.9c4.9-1.3,7.2-3.8,5-5.7c-2.2-1.9-7.9-2.4-12.9-1.1c-4.9,1.3-7.2,3.8-5,5.7&#10;&#9;&#9;&#9;&#9;&#9;&#9;&#9;C361.6,170.6,367.3,171.1,372.2,169.9z"/>
						<path fill="#58595B" d="M418,139.1c3.2-3.1,3.5-10.7,0.8-17c-2.7-6.2-7.5-8.8-10.6-5.7c-3.2,3.1-3.5,10.8-0.8,17&#10;&#9;&#9;&#9;&#9;&#9;&#9;&#9;C410.1,139.7,414.9,142.3,418,139.1z"/>
						<path fill="#58595B" d="M402.6,96.9c3.2-3.1,3.5-10.7,0.8-17c-2.7-6.3-7.5-8.8-10.6-5.7c-3.2,3.1-3.5,10.8-0.8,17&#10;&#9;&#9;&#9;&#9;&#9;&#9;&#9;C394.6,97.5,399.4,100,402.6,96.9z"/>
						<path fill="#58595B" d="M341.7,145.9c5-1.1,8.4-7.2,7.5-13.5c-0.9-6.3-5.6-10.5-10.6-9.3c-5,1.1-8.4,7.2-7.5,13.4&#10;&#9;&#9;&#9;&#9;&#9;&#9;&#9;C331.9,142.9,336.7,147,341.7,145.9z"/>
						<path fill="#58595B" d="M366.1,138.7c5-1.2,8.4-7.2,7.5-13.5c-0.9-6.3-5.6-10.5-10.6-9.3c-5,1.1-8.4,7.2-7.5,13.5&#10;&#9;&#9;&#9;&#9;&#9;&#9;&#9;C356.3,135.7,361,139.8,366.1,138.7z"/>
						<path fill="#58595B" d="M318.8,151.1c5-1.1,8.4-7.2,7.5-13.4c-0.9-6.3-5.6-10.5-10.7-9.3c-5,1.1-8.4,7.2-7.5,13.4&#10;&#9;&#9;&#9;&#9;&#9;&#9;&#9;C309,148.1,313.8,152.2,318.8,151.1z"/>
						<path fill="#58595B" d="M358.6,100.8c5-1.2,8.4-7.2,7.5-13.5c-0.9-6.3-5.6-10.5-10.6-9.3c-5,1.1-8.4,7.2-7.5,13.4&#10;&#9;&#9;&#9;&#9;&#9;&#9;&#9;C348.8,97.8,353.6,102,358.6,100.8z"/>
						<path fill="#58595B" d="M335.5,106.1c5-1.1,8.4-7.2,7.5-13.4c-0.9-6.3-5.6-10.5-10.7-9.3c-5,1.1-8.4,7.2-7.5,13.5&#10;&#9;&#9;&#9;&#9;&#9;&#9;&#9;C325.7,103,330.5,107.2,335.5,106.1z"/>
						<path fill="#58595B" d="M312.7,111.3c5-1.1,8.4-7.2,7.5-13.5c-0.9-6.3-5.6-10.5-10.6-9.3c-5,1.1-8.4,7.2-7.5,13.4&#10;&#9;&#9;&#9;&#9;&#9;&#9;&#9;C302.9,108.3,307.7,112.4,312.7,111.3z"/>
					</g>
					
						<path d="M 386.5 69.5 H 387.1 V 137.699997 H 386.5 V 69.5 Z" transform="matrix(0.9846 -0.1746 0.1746 0.9846 -12.1516 69.1073)" fill="#939598"/>
					<path d="M 381.3999938964844 154.60000610351562 L 381.20001220703125 154 L 323.20001220703125 167.60000610351562 L 319.70001220703125 168.3000030517578 L 319.79998779296875 168.89999389648438 L 323.3999938964844 168.1999969482422 Z" fill="#939598"/>
					
						<path d="M 410.899994 146.800003 H 411.499994 V 163.000004 H 410.899994 V 146.800003 Z" transform="matrix(0.2447 -0.9696 0.9696 0.2447 160.3869 515.7758)" fill="#939598"/>
				</g>
				<path fill="#E6E7E8" d="M311.3,80l49.5-16.8l-51.4,11.4c-1.1,0.3-2.3,0.6-3.4,1c-14.6,5.7-11.9,22.6-11.9,22.6l8.7,51.7&#10;&#9;&#9;&#9;&#9;&#9;l-4.2-46.3c-1.2-9.7,2.4-15.8,5.6-19.2C306.2,82.4,308.6,80.9,311.3,80z"/>
				<path fill="#E6E7E8" d="M383,138l-0.4,1.1c-0.1,0.4-0.3,0.7-0.5,1c-0.2,0.3-0.3,0.7-0.6,1.1l-0.7,1.1l0,0.1c0,0,0,0.1,0,0l0,0&#10;&#9;&#9;&#9;&#9;&#9;l0,0c0,0,0,0,0,0l-0.1,0.1l-0.2,0.2l-0.4,0.5c-0.5,0.7-1,1.2-1.6,1.8c-0.3,0.3-0.6,0.5-0.9,0.8c-0.3,0.3-0.6,0.5-0.9,0.8&#10;&#9;&#9;&#9;&#9;&#9;c-0.7,0.4-1.3,0.9-2,1.3c-2.8,1.6-5.9,2.7-9,3.5c-3.1,0.8-6.2,1.5-9.1,2.1c-1.5,0.3-2.9,0.6-4.3,1c-1.4,0.4-2.7,0.7-4,1.1&#10;&#9;&#9;&#9;&#9;&#9;c-5.1,1.3-9.3,2.5-12.2,3.4c-1.5,0.4-2.6,0.8-3.4,1c-0.8,0.2-1.2,0.4-1.2,0.4s0.4-0.1,1.2-0.2c0.8-0.1,2-0.3,3.5-0.5&#10;&#9;&#9;&#9;&#9;&#9;c3-0.5,7.4-1.2,12.5-2.2c1.3-0.2,2.6-0.5,4-0.7c1.4-0.2,2.8-0.5,4.3-0.7c3-0.5,6.1-0.9,9.4-1.7c3.3-0.8,6.7-1.8,9.9-3.6&#10;&#9;&#9;&#9;&#9;&#9;c0.8-0.4,1.6-1,2.3-1.5c0.4-0.3,0.7-0.6,1.1-0.9c0.4-0.3,0.7-0.6,1.1-0.9c0.7-0.7,1.4-1.3,1.9-2.1l0.4-0.6l0.2-0.3l0.1-0.1&#10;&#9;&#9;&#9;&#9;&#9;c0,0.1,0.1-0.1,0.1-0.1l0,0l0-0.1l0.7-1.1c2-3.4,2.8-7.2,2.9-10.8c0-0.9,0-1.8-0.1-2.7c-0.1-0.9-0.2-1.8-0.3-2.6&#10;&#9;&#9;&#9;&#9;&#9;c-0.2-1.7-0.6-3.4-0.9-5c-0.7-3.2-1.4-6.3-2-9.2c-0.6-2.9-1.3-5.7-1.8-8.3c-1.2-5.1-2.2-9.4-2.9-12.4c-0.7-3-1.2-4.7-1.2-4.7&#10;&#9;&#9;&#9;&#9;&#9;s0.2,1.7,0.5,4.8c0.4,3,0.9,7.4,1.7,12.6c0.4,2.6,0.8,5.4,1.3,8.4c0.2,1.5,0.5,3,0.7,4.6c0.3,1.6,0.6,3.1,0.9,4.7&#10;&#9;&#9;&#9;&#9;&#9;c0.6,3.2,1,6.5,0.9,9.7c0,1.6-0.3,3.2-0.7,4.8C383.2,137.2,383.1,137.6,383,138z"/>
				<path fill="#E6E7E8" d="M380.8,142.4C380.7,142.5,380.8,142.4,380.8,142.4L380.8,142.4L380.8,142.4z"/>
			</g>
		</g><g transform="matrix(1, 0, 0, 1, 0, -7.105427357601002e-15)">
				<g>
					<path d="M 715 262.79998779296875 L 686.7999877929688 221.1999969482422 L 685.5 173.10000610351562 L 713.7000122070312 214.6999969482422 Z" fill="#127754"/>
				</g>
				<g>
					<path d="M 747.0999755859375 191.10000610351562 L 718.9000244140625 149.60000610351562 L 753.2000122070312 161.10000610351562 L 781.4000244140625 202.6999969482422 Z" fill="#52BD89"/>
				</g>
				<g>
					<path d="M 713.7000122070312 214.6999969482422 L 685.5 173.10000610351562 L 718.9000244140625 149.60000610351562 L 747.0999755859375 191.10000610351562 Z" fill="#25966B"/>
				</g>
				<g>
					<path d="M 747.0999755859375 191.10000610351562 L 781.4000244140625 202.6999969482422 L 782.7000122070312 250.89999389648438 L 715 262.79998779296875 L 713.7000122070312 214.6999969482422 Z" fill="#31B481"/>
				</g>
			</g><g transform="matrix(1, 0, 0, 1, 0, -7.105427357601002e-15)">
					<path d="M 811.4000244140625 67.30000305175781 L 811.2000122070312 142 L 772.4000244140625 164.60000610351562 L 772.5999755859375 89.80000305175781 Z" fill="#25966B"/>
				</g><path d="M 772.5999755859375 89.80000305175781 L 772.4000244140625 164.60000610351562 L 721.9000244140625 135.39999389648438 L 722.0999755859375 60.70000076293945 Z" fill="#127754" transform="matrix(1, 0, 0, 1, 0, -7.105427357601002e-15)"/><path d="M 800.2999877929688 44.5 L 811.4000244140625 67.30000305175781 L 772.5999755859375 89.80000305175781 L 722.0999755859375 60.70000076293945 L 760.9000244140625 38.099998474121094 Z" fill="#31B481" transform="matrix(1, 0, 0, 1, 0, -7.105427357601002e-15)"/><path d="M 646.5 141.60000610351562 L 711.0999755859375 104 L 711 148.89999389648438 L 646.4000244140625 186.39999389648438 Z" fill="#25966B" transform="matrix(1, 0, 0, 1, 0, -7.105427357601002e-15)"/><g transform="matrix(1, 0, 0, 1, 0, -7.105427357601002e-15)">
					<path d="M 596 112.4000015258789 L 660.5999755859375 74.9000015258789 L 685.9000244140625 73.0999984741211 L 621.2999877929688 110.69999694824219 Z" fill="#127754"/>
				</g><path d="M 621.2999877929688 110.69999694824219 L 685.9000244140625 73.0999984741211 L 711.0999755859375 104 L 646.5 141.60000610351562 Z" fill="#31B481" transform="matrix(1, 0, 0, 1, 0, -7.105427357601002e-15)"/><path d="M 621.2999877929688 110.69999694824219 L 646.5 141.60000610351562 L 646.4000244140625 186.39999389648438 L 595.9000244140625 157.3000030517578 L 596 112.4000015258789 Z" fill="#1C865F" transform="matrix(1, 0, 0, 1, 0, -7.105427357601002e-15)"/><g transform="matrix(1, 0, 0, 1, 0, -7.105427357601002e-15)">
				<g>
					<path d="M 1097 262.79998779296875 L 1068.800048828125 221.1999969482422 L 1067.5999755859375 173.10000610351562 L 1095.800048828125 214.6999969482422 Z" fill="#761414"/>
				</g>
				<g>
					<path d="M 1129.0999755859375 191.10000610351562 L 1100.9000244140625 149.60000610351562 L 1135.300048828125 161.10000610351562 L 1163.5 202.6999969482422 Z" fill="#D6312A"/>
				</g>
				<g>
					<path d="M 1095.800048828125 214.6999969482422 L 1067.5999755859375 173.10000610351562 L 1100.9000244140625 149.60000610351562 L 1129.0999755859375 191.10000610351562 Z" fill="#96221F"/>
				</g>
				<g>
					<path d="M 1129.0999755859375 191.10000610351562 L 1163.5 202.6999969482422 L 1164.699951171875 250.89999389648438 L 1097 262.79998779296875 L 1095.800048828125 214.6999969482422 Z" fill="#B42C26"/>
				</g>
			</g><g transform="matrix(1, 0, 0, 1, 0, -7.105427357601002e-15)">
					<path d="M 1193.4000244140625 67.30000305175781 L 1193.199951171875 142 L 1154.4000244140625 164.60000610351562 L 1154.5999755859375 89.80000305175781 Z" fill="#96221F"/>
				</g><path d="M 1154.5999755859375 89.80000305175781 L 1154.4000244140625 164.60000610351562 L 1103.9000244140625 135.39999389648438 L 1104.199951171875 60.70000076293945 Z" fill="#761414" transform="matrix(1, 0, 0, 1, 0, -7.105427357601002e-15)"/><path d="M 1182.300048828125 44.5 L 1193.4000244140625 67.30000305175781 L 1154.5999755859375 89.80000305175781 L 1104.199951171875 60.70000076293945 L 1142.9000244140625 38.099998474121094 Z" fill="#B42C26" transform="matrix(1, 0, 0, 1, 0, -7.105427357601002e-15)"/><path d="M 1028.5 141.60000610351562 L 1093.0999755859375 104 L 1093 148.89999389648438 L 1028.4000244140625 186.39999389648438 Z" fill="#96221F" transform="matrix(1, 0, 0, 1, 0, -7.105427357601002e-15)"/><g transform="matrix(1, 0, 0, 1, 0, -7.105427357601002e-15)">
					<path d="M 978 112.4000015258789 L 1042.5999755859375 74.9000015258789 L 1067.9000244140625 73.0999984741211 L 1003.2999877929688 110.69999694824219 Z" fill="#761414"/>
				</g><path d="M 1003.2999877929688 110.69999694824219 L 1067.9000244140625 73.0999984741211 L 1093.0999755859375 104 L 1028.5 141.60000610351562 Z" fill="#B42C26" transform="matrix(1, 0, 0, 1, 0, -7.105427357601002e-15)"/><path d="M 1003.2999877929688 110.69999694824219 L 1028.5 141.60000610351562 L 1028.4000244140625 186.39999389648438 L 977.9000244140625 157.3000030517578 L 978 112.4000015258789 Z" fill="#861A1A" transform="matrix(1, 0, 0, 1, 0, -7.105427357601002e-15)"/><g transform="matrix(1, 0, 0, 1, 0, -7.105427357601002e-15)">
				<g>
					<path d="M 767.599976 658.299988 H 858.299973 V 786.299988 H 767.599976 V 658.299988 Z" fill="#E2D455"/>
					<path d="M 767.5999755859375 658.2999877929688 L 770.4000244140625 655.2000122070312 L 861.0999755859375 655.2000122070312 L 858.2999877929688 658.2999877929688 Z" fill="#BB9B53"/>
					<path d="M 858.2999877929688 786.2999877929688 L 861.0999755859375 783.2999877929688 L 861.0999755859375 655.2000122070312 L 858.2999877929688 658.2999877929688 Z" fill="#A17F45"/>
				</g>
				<g>
					<path d="M 774.900024 688.299988 H 851.000023 V 778.899986 H 774.900024 V 688.299988 Z" fill="#FFF9B8"/>
					<path fill="#3C2415" d="M851.7,779.6h-77.5v-92h77.5V779.6z M775.6,778.2h74.7V689h-74.7V778.2z"/>
				</g>
				<g>
					<path d="M 774.900024 665.400024 H 851.000023 V 683.700024 H 774.900024 V 665.400024 Z" fill="#F9ED32"/>
					<path fill="#3C2415" d="M851.7,684.4h-77.5v-19.7h77.5V684.4z M775.6,683h74.7v-16.9h-74.7V683z"/>
				</g>
			</g><g transform="matrix(1, 0, 0, 1, 0, -7.105427357601002e-15)">
					<path d="M 866.700012 658.299988 H 957.400009 V 786.299988 H 866.700012 V 658.299988 Z" fill="#ACD36C"/>
					<path d="M 866.7000122070312 658.2999877929688 L 869.5999755859375 655.2000122070312 L 960.2000122070312 655.2000122070312 L 957.4000244140625 658.2999877929688 Z" fill="#BB9B53"/>
					<path d="M 957.4000244140625 786.2999877929688 L 960.2000122070312 783.2999877929688 L 960.2000122070312 655.2000122070312 L 957.4000244140625 658.2999877929688 Z" fill="#A17F45"/>
				</g><path d="M 874 688.299988 H 950.099998 V 778.899986 H 874 V 688.299988 Z" fill="#FFF9B8" transform="matrix(1, 0, 0, 1, 0, -7.105427357601002e-15)"/><path fill="#3C2415" d="M950.8,779.6h-77.5v-92h77.5V779.6z M874.7,778.2h74.7V689h-74.7V778.2z" transform="matrix(1, 0, 0, 1, 0, -7.105427357601002e-15)"/><path d="M 874 665.400024 H 950.099998 V 683.700024 H 874 V 665.400024 Z" fill="#8DC63F" transform="matrix(1, 0, 0, 1, 0, -7.105427357601002e-15)"/><path fill="#3C2415" d="M950.8,684.4h-77.5v-19.7h77.5V684.4z M874.7,683h74.7v-16.9h-74.7V683z" transform="matrix(1, 0, 0, 1, 0, -7.105427357601002e-15)"/><g transform="matrix(1, 0, 0, 1, 0, -7.105427357601002e-15)">
					<path d="M 965.900024 658.299988 H 1056.600021 V 786.299988 H 965.900024 V 658.299988 Z" fill="#74D1F6"/>
					<path d="M 965.9000244140625 658.2999877929688 L 968.7000122070312 655.2000122070312 L 1059.4000244140625 655.2000122070312 L 1056.5999755859375 658.2999877929688 Z" fill="#BB9B53"/>
					<path d="M 1056.5999755859375 786.2999877929688 L 1059.4000244140625 783.2999877929688 L 1059.4000244140625 655.2000122070312 L 1056.5999755859375 658.2999877929688 Z" fill="#A17F45"/>
				</g><path d="M 973.200012 688.299988 H 1049.300011 V 778.899986 H 973.200012 V 688.299988 Z" fill="#FFF9B8" transform="matrix(1, 0, 0, 1, 0, -7.105427357601002e-15)"/><path fill="#3C2415" d="M1050,779.6h-77.5v-92h77.5V779.6z M973.9,778.2h74.7V689h-74.7V778.2z" transform="matrix(1, 0, 0, 1, 0, -7.105427357601002e-15)"/><path d="M 973.200012 665.400024 H 1049.300011 V 683.700024 H 973.200012 V 665.400024 Z" fill="#27AAE1" transform="matrix(1, 0, 0, 1, 0, -7.105427357601002e-15)"/><path fill="#3C2415" d="M1050,684.4h-77.5v-19.7h77.5V684.4z M973.9,683h74.7v-16.9h-74.7V683z" transform="matrix(1, 0, 0, 1, 0, -7.105427357601002e-15)"/><g transform="matrix(1, 0, 0, 1, 0, -7.105427357601002e-15)">
					<path d="M 1065 658.299988 H 1155.699997 V 786.299988 H 1065 V 658.299988 Z" fill="#F16460"/>
					<path d="M 1065 658.2999877929688 L 1067.800048828125 655.2000122070312 L 1158.5 655.2000122070312 L 1155.699951171875 658.2999877929688 Z" fill="#BB9B53"/>
					<path d="M 1155.699951171875 786.2999877929688 L 1158.5 783.2999877929688 L 1158.5 655.2000122070312 L 1155.699951171875 658.2999877929688 Z" fill="#A17F45"/>
				</g><path d="M 1072.300049 688.299988 H 1148.400047 V 778.899986 H 1072.300049 V 688.299988 Z" fill="#FFF9B8" transform="matrix(1, 0, 0, 1, 0, -7.105427357601002e-15)"/><path fill="#3C2415" d="M1149.1,779.6h-77.5v-92h77.5V779.6z M1073,778.2h74.7V689H1073V778.2z" transform="matrix(1, 0, 0, 1, 0, -7.105427357601002e-15)"/><path d="M 1072.300049 665.400024 H 1148.400047 V 683.700024 H 1072.300049 V 665.400024 Z" fill="#ED1B2F" transform="matrix(1, 0, 0, 1, 0, -7.105427357601002e-15)"/><path fill="#3C2415" d="M1149.1,684.4h-77.5v-19.7h77.5V684.4z M1073,683h74.7v-16.9H1073V683z" transform="matrix(1, 0, 0, 1, 0, -7.105427357601002e-15)"/><g transform="matrix(1, 0, 0, 1, 0, -7.105427357601002e-15)">
					<g>
						<path d="M 866.700012 796.400024 H 957.400009 V 924.400024 H 866.700012 V 796.400024 Z" fill="#D1D3D4"/>
						<path d="M 866.7000122070312 796.4000244140625 L 869.5999755859375 793.4000244140625 L 960.2000122070312 793.4000244140625 L 957.4000244140625 796.4000244140625 Z" fill="#BB9B53"/>
						<path d="M 957.4000244140625 924.5 L 960.2000122070312 921.4000244140625 L 960.2000122070312 793.4000244140625 L 957.4000244140625 796.4000244140625 Z" fill="#A17F45"/>
					</g>
					<g>
						<path d="M 874 804.400024 H 950.099998 V 916.800026 H 874 V 804.400024 Z" fill="#E6E7E8"/>
						<path fill="#3C2415" d="M950.8,917.7h-77.5V803.5h77.5V917.7z M874.7,916h74.7V805.3h-74.7V916z"/>
					</g>
				</g><path fill="#414042" d="M903.9,879.2v0.2c0,0.4,0.3,0.7,0.7,0.7h12.6c0.4,0,0.7-0.3,0.7-0.7v-0.2c0-0.4-0.3-0.7-0.7-0.7h-12.6&#10;&#9;&#9;&#9;&#9;&#9;&#9;C904.2,878.5,903.9,878.8,903.9,879.2z" transform="matrix(1, 0, 0, 1, 0, -7.105427357601002e-15)"/><path fill="#414042" d="M903.9,881.4v0.2c0,0.4,0.3,0.7,0.7,0.7h12.6c0.4,0,0.7-0.3,0.7-0.7v-0.2c0-0.4-0.3-0.7-0.7-0.7h-12.6&#10;&#9;&#9;&#9;&#9;&#9;&#9;C904.2,880.7,903.9,881,903.9,881.4z" transform="matrix(1, 0, 0, 1, 0, -7.105427357601002e-15)"/><path fill="#414042" d="M903.9,883.6v0.2c0,0.4,0.3,0.7,0.7,0.7h12.6c0.4,0,0.7-0.3,0.7-0.7v-0.2c0-0.4-0.3-0.7-0.7-0.7h-12.6&#10;&#9;&#9;&#9;&#9;&#9;&#9;C904.2,883,903.9,883.3,903.9,883.6z" transform="matrix(1, 0, 0, 1, 0, -7.105427357601002e-15)"/><path fill="#414042" d="M889.1,863.3c-0.7,0.4-1,1.4-0.6,2.1h0c0.4,0.7,1.4,1,2.1,0.6l7.2-4.2c-0.7-0.8-1.3-1.7-1.8-2.5&#10;&#9;&#9;&#9;&#9;&#9;&#9;L889.1,863.3z M897.3,861.7c0,0.1,0,0.2-0.1,0.2l-6.8,3.9c0,0-0.1,0-0.1,0c-0.1,0-0.1,0-0.1-0.1c0-0.1,0-0.2,0.1-0.2l6.8-3.9&#10;&#9;&#9;&#9;&#9;&#9;&#9;C897.2,861.6,897.3,861.6,897.3,861.7z" transform="matrix(1, 0, 0, 1, 0, -7.105427357601002e-15)"/><path fill="#414042" d="M893.6,851h-6.7c-0.8,0-1.5,0.7-1.5,1.5s0.7,1.5,1.5,1.5h7C893.7,853,893.6,852,893.6,851z&#10;&#9;&#9;&#9;&#9;&#9;&#9; M893.1,853.5h-6.4c-0.1,0-0.2-0.1-0.2-0.2c0-0.1,0.1-0.2,0.2-0.2h6.4c0.1,0,0.2,0.1,0.2,0.2&#10;&#9;&#9;&#9;&#9;&#9;&#9;C893.3,853.5,893.2,853.5,893.1,853.5z" transform="matrix(1, 0, 0, 1, 0, -7.105427357601002e-15)"/><path fill="#414042" d="M889.6,842.8l4.6,2.6c0.2-1.1,0.6-2,1-3l-4-2.3c-0.7-0.4-1.7-0.2-2.1,0.6&#10;&#9;&#9;&#9;&#9;&#9;&#9;C888.6,841.4,888.8,842.3,889.6,842.8z M889.5,842.2c0-0.1,0.1-0.1,0.2-0.1l4.3,2.3c0.1,0,0.1,0.1,0.1,0.2&#10;&#9;&#9;&#9;&#9;&#9;&#9;c0,0.1-0.1,0.1-0.1,0.1c0,0,0,0-0.1,0l-4.3-2.3C889.5,842.3,889.4,842.3,889.5,842.2z" transform="matrix(1, 0, 0, 1, 0, -7.105427357601002e-15)"/><path fill="#414042" d="M905,878h11.7c0.2,0,0.4-0.2,0.4-0.4v-1.6c0-0.2-0.2-0.4-0.4-0.4H905c-0.2,0-0.4,0.2-0.4,0.4v1.6&#10;&#9;&#9;&#9;&#9;&#9;&#9;C904.6,877.8,904.8,878,905,878z" transform="matrix(1, 0, 0, 1, 0, -7.105427357601002e-15)"/><path fill="#414042" d="M932.2,842c0.7-0.4,1-1.4,0.6-2.1s-1.4-1-2.1-0.6l-4.4,2.5c0.5,0.9,0.8,1.9,1.1,2.9L932.2,842z&#10;&#9;&#9;&#9;&#9;&#9;&#9; M926.9,842.3c-0.1,0-0.1,0-0.1-0.1c0-0.1,0-0.2,0.1-0.2l4.3-2.4c0.1,0,0.2,0,0.2,0.1c0,0.1,0,0.2-0.1,0.2L926.9,842.3&#10;&#9;&#9;&#9;&#9;&#9;&#9;C927,842.3,927,842.3,926.9,842.3z" transform="matrix(1, 0, 0, 1, 0, -7.105427357601002e-15)"/><path fill="#414042" d="M899.6,837c0.8-0.6,1.7-1.1,2.6-1.6l-2.1-3.6c-0.4-0.7-1.4-1-2.1-0.6c-0.7,0.4-1,1.4-0.6,2.1L899.6,837&#10;&#9;&#9;&#9;&#9;&#9;&#9;z M897.7,832.8c0.1,0,0.2,0,0.2,0.1l2,3.5c0,0.1,0,0.2-0.1,0.2c0,0,0,0-0.1,0c-0.1,0-0.1,0-0.1-0.1l-2-3.5&#10;&#9;&#9;&#9;&#9;&#9;&#9;C897.6,832.9,897.6,832.8,897.7,832.8z" transform="matrix(1, 0, 0, 1, 0, -7.105427357601002e-15)"/><path fill="#414042" d="M912.2,833.5v-4.3c0-0.8-0.7-1.5-1.5-1.5l0,0c-0.8,0-1.5,0.7-1.5,1.5v4.3c0.6,0,1.2-0.1,1.7-0.1&#10;&#9;&#9;&#9;&#9;&#9;&#9;C911.3,833.5,911.8,833.5,912.2,833.5z M909.8,833.1c0,0.1-0.1,0.2-0.2,0.2s-0.2-0.1-0.2-0.2v-4c0-0.1,0.1-0.2,0.2-0.2&#10;&#9;&#9;&#9;&#9;&#9;&#9;s0.2,0.1,0.2,0.2V833.1z" transform="matrix(1, 0, 0, 1, 0, -7.105427357601002e-15)"/><path fill="#414042" d="M923.9,832.9c0.4-0.7,0.2-1.7-0.6-2.1s-1.7-0.2-2.1,0.6l-2.2,3.8c0.9,0.4,1.8,0.9,2.7,1.5L923.9,832.9z&#10;&#9;&#9;&#9;&#9;&#9;&#9; M919.8,835.1C919.8,835.1,919.7,835.1,919.8,835.1c-0.2-0.1-0.2-0.2-0.1-0.2l2.2-3.6c0-0.1,0.1-0.1,0.2-0.1&#10;&#9;&#9;&#9;&#9;&#9;&#9;c0.1,0,0.1,0.1,0.1,0.2l-2.2,3.6C919.9,835,919.9,835.1,919.8,835.1z" transform="matrix(1, 0, 0, 1, 0, -7.105427357601002e-15)"/><path fill="#414042" d="M934.9,851h-6.7c0,1.1-0.1,2.1-0.3,3.1h7c0.8,0,1.5-0.7,1.5-1.5S935.7,851,934.9,851z M934.7,851.7H929&#10;&#9;&#9;&#9;&#9;&#9;&#9;c-0.1,0-0.2-0.1-0.2-0.2c0-0.1,0.1-0.2,0.2-0.2h5.7c0.1,0,0.2,0.1,0.2,0.2C934.9,851.7,934.8,851.7,934.7,851.7z" transform="matrix(1, 0, 0, 1, 0, -7.105427357601002e-15)"/><path fill="#414042" d="M910.9,889c0,0-1.1,0-2.3-0.2c0,0,0.7,0.4,1.1,0.7c0.3,0.3,0.5,0.7,1.2,0.6c0.6,0,0.8-0.4,1.2-0.6&#10;&#9;&#9;&#9;&#9;&#9;&#9;c0.4-0.3,1.1-0.7,1.1-0.7C912,889,910.9,889,910.9,889z" transform="matrix(1, 0, 0, 1, 0, -7.105427357601002e-15)"/><path fill="#414042" d="M917.2,885.1h-12.6c-0.4,0-0.7,0.3-0.7,0.7v0.2c0,0.4,0.3,0.7,0.7,0.7h0.4c0.8,0.5,1.5,1,2,1.4&#10;&#9;&#9;&#9;&#9;&#9;&#9;c1.3,1.1,6.4,1.1,7.7,0c0.4-0.4,1.1-0.9,2-1.4h0.4c0.4,0,0.7-0.3,0.7-0.7v-0.2C917.9,885.4,917.6,885.1,917.2,885.1z" transform="matrix(1, 0, 0, 1, 0, -7.105427357601002e-15)"/><path fill="#414042" d="M926,847.2c-1.4-7.9-8.6-11.5-15.1-11.5c-6.5,0-13.7,3.5-15.1,11.5c-1,5.8,0.1,10.1,3.8,14.3&#10;&#9;&#9;&#9;&#9;&#9;&#9;c1.9,2.1,3,5.5,2.7,8c-0.4,3.2,1.6,4.9,2.7,5.3c0.1,0,0.2,0.1,0.4,0.1h10.9c0.1,0,0.3,0,0.4-0.1c1.1-0.5,3.1-2.2,2.7-5.3&#10;&#9;&#9;&#9;&#9;&#9;&#9;c-0.3-2.5,0.8-5.9,2.7-8C925.9,857.3,927,853.1,926,847.2z M915.3,854.7c-3.7,0-6.7-3-6.7-6.7s3-6.7,6.7-6.7s6.7,3,6.7,6.7&#10;&#9;&#9;&#9;&#9;&#9;&#9;S919,854.7,915.3,854.7z" transform="matrix(1, 0, 0, 1, 0, -7.105427357601002e-15)"/><path fill="#414042" d="M932.6,864.1l-7.3-4.2c-0.5,0.8-1.2,1.6-1.9,2.4c0,0,0,0-0.1,0.1l7.7,4.4c0.7,0.4,1.7,0.2,2.1-0.6&#10;&#9;&#9;&#9;&#9;&#9;&#9;S933.4,864.5,932.6,864.1z M932.3,864.9c0,0-0.1,0.1-0.1,0.1c0,0-0.1,0-0.1,0l-6.4-3.8c-0.1,0-0.1-0.1-0.1-0.2&#10;&#9;&#9;&#9;&#9;&#9;&#9;c0-0.1,0.1-0.1,0.2-0.1l6.4,3.8C932.3,864.7,932.3,864.8,932.3,864.9z" transform="matrix(1, 0, 0, 1, 0, -7.105427357601002e-15)"/><g transform="matrix(1, 0, 0, 1, 0, -7.105427357601002e-15)">
					<g>
						<path d="M 965.900024 796.400024 H 1056.600021 V 924.400024 H 965.900024 V 796.400024 Z" fill="#D1D3D4"/>
						<path d="M 965.9000244140625 796.4000244140625 L 968.7000122070312 793.4000244140625 L 1059.4000244140625 793.4000244140625 L 1056.5999755859375 796.4000244140625 Z" fill="#BB9B53"/>
						<path d="M 1056.5999755859375 924.5 L 1059.4000244140625 921.4000244140625 L 1059.4000244140625 793.4000244140625 L 1056.5999755859375 796.4000244140625 Z" fill="#A17F45"/>
					</g>
					<g>
						<path d="M 973.200012 804.400024 H 1049.300011 V 916.800026 H 973.200012 V 804.400024 Z" fill="#E6E7E8"/>
						<path fill="#3C2415" d="M1050,917.7h-77.5V803.5h77.5V917.7z M973.9,916h74.7V805.3h-74.7V916z"/>
					</g>
				</g><path fill="#414042" d="M1001.4,877.3c-1.1-1-2.3-1.8-3.5-2.6c-0.4-0.2-0.8-0.5-1.1-0.7c-0.1-0.1-0.4-0.1-0.4-0.2&#10;&#9;&#9;&#9;&#9;&#9;&#9;c0.9,1.4,0.6,3.1,0,4.6c-0.6,1.6-1.7,2.8-2.4,4.3c-1.7,3.6-0.6,7.9,3.3,9.3c2.3,0.8,5,0.5,6.8-1.1c1.2-1,1.8-2.4,2-3.9&#10;&#9;&#9;&#9;&#9;&#9;&#9;C1006.7,883,1004.2,879.6,1001.4,877.3z M998.7,884.3c-0.1,0.5-0.2,1-0.5,1.4c-0.3,0.4-0.9,0.8-1.5,0.6&#10;&#9;&#9;&#9;&#9;&#9;&#9;c-0.5-0.2-0.9-0.6-1.1-1.1c-0.4-1-0.2-2,0.3-2.9c0.6-1,1.2-2,2-2.9c0.1,0.2,0.1,0.4,0.2,0.6c0.1,0.2,0.1,0.4,0.2,0.6&#10;&#9;&#9;&#9;&#9;&#9;&#9;c0.1,0.4,0.2,0.8,0.3,1.2C998.7,882.6,998.8,883.5,998.7,884.3z" transform="matrix(1, 0, 0, 1, 0, -7.105427357601002e-15)"/><path fill="#414042" d="M985.6,877.7c0.1,1,0.6,2,1.4,2.7c1.3,1.1,3.2,1.4,4.8,0.8c2.7-1,3.5-4,2.3-6.5c-0.5-1-1.3-1.9-1.7-3&#10;&#9;&#9;&#9;&#9;&#9;&#9;c-0.4-1-0.6-2.2,0-3.2c0,0.1-0.2,0.1-0.3,0.2c-0.3,0.2-0.5,0.3-0.8,0.5c-0.8,0.5-1.7,1.1-2.4,1.8&#10;&#9;&#9;&#9;&#9;&#9;&#9;C987,872.7,985.3,875.1,985.6,877.7z M990.9,874.2c0.1-0.3,0.1-0.5,0.2-0.8c0-0.1,0.1-0.3,0.1-0.4c0-0.1,0.1-0.3,0.1-0.4&#10;&#9;&#9;&#9;&#9;&#9;&#9;c0.5,0.6,1,1.3,1.4,2c0.4,0.6,0.5,1.3,0.2,2c-0.1,0.4-0.4,0.7-0.8,0.8c-0.4,0.1-0.8-0.1-1-0.4c-0.2-0.3-0.3-0.6-0.4-1&#10;&#9;&#9;&#9;&#9;&#9;&#9;C990.8,875.4,990.8,874.8,990.9,874.2z" transform="matrix(1, 0, 0, 1, 0, -7.105427357601002e-15)"/><path fill="#414042" d="M1033.3,830.7c-0.8,0-1.4,0.3-1.9,0.9c-1.2,0.3-3,0.7-5,0.6c-2,0.1-3.9-0.3-5-0.6&#10;&#9;&#9;&#9;&#9;&#9;&#9;c-0.5-0.5-1.2-0.9-1.9-0.9c-1.4,0-2.6,1.2-2.6,2.6c0,1.4,1.2,2.6,2.6,2.6c0.8,0,1.4-0.3,1.9-0.9c0.8-0.2,1.9-0.5,3.2-0.6v4.5&#10;&#9;&#9;&#9;&#9;&#9;&#9;h3.7v-4.5c1.3,0.1,2.4,0.4,3.2,0.6c0.5,0.5,1.2,0.9,1.9,0.9c1.4,0,2.6-1.2,2.6-2.6C1035.8,831.9,1034.7,830.7,1033.3,830.7z" transform="matrix(1, 0, 0, 1, 0, -7.105427357601002e-15)"/><path fill="#414042" d="M1001.5,864.9h-15.2c-0.6,0-1.2-0.5-1.2-1.2c0-0.6,0.5-1.2,1.2-1.2h15.2c0.6,0,1.2,0.5,1.2,1.2&#10;&#9;&#9;&#9;&#9;&#9;&#9;&#9;C1002.7,864.4,1002.2,864.9,1001.5,864.9z" transform="matrix(1, 0, 0, 1, 0, -7.105427357601002e-15)"/><path fill="#414042" d="M1000,867.8h-12.1c-0.6,0-1-0.5-1-1v-0.2c0-0.6,0.5-1,1-1h12.1c0.6,0,1,0.5,1,1v0.2&#10;&#9;&#9;&#9;&#9;&#9;&#9;&#9;C1001,867.4,1000.6,867.8,1000,867.8z" transform="matrix(1, 0, 0, 1, 0, -7.105427357601002e-15)"/><path fill="#414042" d="M1026.3,839.9c-6,0-10.9,4.9-10.9,10.9c0,0.4,0,0.8,0.1,1.2h-9h-11.8c-5.2,0-9.5,4.2-9.5,9.5l0,0&#10;&#9;&#9;&#9;&#9;&#9;&#9;c0,0.1,0,0.2,0,0.2h21.3h9.4h10.4v0c0,0,0,0,0,0c6,0,10.9-4.9,10.9-10.9C1037.3,844.8,1032.4,839.9,1026.3,839.9z" transform="matrix(1, 0, 0, 1, 0, -7.105427357601002e-15)"/><g transform="matrix(1, 0, 0, 1, 0, -7.105427357601002e-15)">
				<g>
					<path d="M 167.300003 322.100006 H 369.199997 V 415.300003 H 167.300003 V 322.100006 Z" fill="#B5D99A"/>
					<path fill="#4FAA58" d="M350.7,326h-82.5h-82.5c0.3,12.9-13.5,15-13.5,15v27.7v27.7c0,0,13.7,2.1,13.5,15h82.5h82.5&#10;&#9;&#9;&#9;&#9;&#9;&#9;c-0.3-12.9,13.5-15,13.5-15v-27.7V341C364.2,341,350.5,338.9,350.7,326z"/>
					<g>
						<g>
							<path fill="#C3DE9A" d="M268.2,406.9c-20.8,0-37.7-16.9-37.7-37.7c0-20.8,16.9-37.7,37.7-37.7c20.8,0,37.7,16.9,37.7,37.7&#10;&#9;&#9;&#9;&#9;&#9;&#9;&#9;&#9;C305.9,389.9,289,406.9,268.2,406.9z M268.2,334.7c-19,0-34.4,15.4-34.4,34.4c0,19,15.4,34.4,34.4,34.4&#10;&#9;&#9;&#9;&#9;&#9;&#9;&#9;&#9;c19,0,34.4-15.4,34.4-34.4C302.6,350.2,287.2,334.7,268.2,334.7z"/>
							<path fill="#C3DE9A" d="M283.8,379.7c0-6.7-4.1-9.8-9.3-12.1l-2.9-1.2V351c3,0.5,5.5,2,7.7,4l3-3.7&#10;&#9;&#9;&#9;&#9;&#9;&#9;&#9;&#9;c-2.6-2.8-6.4-4.8-10.7-5.4v-3.1c0-1-0.8-1.8-1.8-1.8H269c-1,0-1.8,0.8-1.8,1.8v3c-7.3,0.7-12.5,5.5-12.5,11.9&#10;&#9;&#9;&#9;&#9;&#9;&#9;&#9;&#9;c0,6.6,5,9.9,9.2,11.7l3.3,1.4v16.7c-4.3-0.4-8.2-2.5-11.2-5.6l-3.4,4c3.7,3.8,8.8,6.4,14.6,6.7v2.9c0,1,0.8,1.8,1.8,1.8h0.8&#10;&#9;&#9;&#9;&#9;&#9;&#9;&#9;&#9;c1,0,1.8-0.8,1.8-1.8v-3.1C279.2,391.2,283.8,386,283.8,379.7z M260.5,357.4c0-3.6,2.6-6,6.7-6.5v13.7&#10;&#9;&#9;&#9;&#9;&#9;&#9;&#9;&#9;C263.9,363.1,260.5,361.4,260.5,357.4z M271.6,387.3v-14.5c3.7,1.7,6.3,3.3,6.3,7.4C278,383.8,275.6,386.4,271.6,387.3z"/>
						</g>
					</g>
				</g>
				<path d="M 167.300003 415.299988 H 369.199997 V 446.599987 H 167.300003 V 415.299988 Z" fill="#AAC388"/>
				<path d="M 167.300003 418.100006 H 369.199997 V 420.000006 H 167.300003 V 418.100006 Z" fill="#94AB77"/>
				<path d="M 167.300003 421.600006 H 369.199997 V 423.500006 H 167.300003 V 421.600006 Z" opacity="0.5" fill="#94AB77"/>
				<path d="M 167.300003 425 H 369.199997 V 426.9 H 167.300003 V 425 Z" fill="#94AB77"/>
				<path d="M 167.300003 428.5 H 369.199997 V 430.4 H 167.300003 V 428.5 Z" opacity="0.5" fill="#94AB77"/>
				<path d="M 167.300003 431.899994 H 369.199997 V 433.799994 H 167.300003 V 431.899994 Z" fill="#94AB77"/>
				<path d="M 167.300003 435.399994 H 369.199997 V 437.299994 H 167.300003 V 435.399994 Z" opacity="0.5" fill="#94AB77"/>
				<path d="M 167.300003 438.899994 H 369.199997 V 440.799994 H 167.300003 V 438.899994 Z" fill="#94AB77"/>
				<path d="M 167.300003 442.299988 H 369.199997 V 444.199988 H 167.300003 V 442.299988 Z" opacity="0.5" fill="#94AB77"/>
			</g><g transform="matrix(1, 0, 0, 1, 0, -7.105427357601002e-15)">
					<path d="M 231.199997 429.399994 H 433.099991 V 522.599991 H 231.199997 V 429.399994 Z" fill="#B5D99A"/>
					<path fill="#4FAA58" d="M414.7,433.3h-82.5h-82.5c0.3,12.9-13.5,15-13.5,15V476v27.7c0,0,13.7,2.1,13.5,15h82.5h82.5&#10;&#9;&#9;&#9;&#9;&#9;&#9;c-0.3-12.9,13.5-15,13.5-15V476v-27.7C428.1,448.3,414.4,446.3,414.7,433.3z"/>
					<g>
						<g>
							<path fill="#C3DE9A" d="M332.1,514.2c-20.8,0-37.7-16.9-37.7-37.7c0-20.8,16.9-37.7,37.7-37.7c20.8,0,37.7,16.9,37.7,37.7&#10;&#9;&#9;&#9;&#9;&#9;&#9;&#9;&#9;C369.9,497.3,352.9,514.2,332.1,514.2z M332.1,442.1c-19,0-34.4,15.4-34.4,34.4c0,19,15.4,34.4,34.4,34.4&#10;&#9;&#9;&#9;&#9;&#9;&#9;&#9;&#9;c19,0,34.4-15.4,34.4-34.4C366.6,457.5,351.1,442.1,332.1,442.1z"/>
							<path fill="#C3DE9A" d="M347.8,487c0-6.7-4.1-9.8-9.3-12.1l-2.9-1.2v-15.4c3,0.5,5.5,2,7.7,4l3-3.7&#10;&#9;&#9;&#9;&#9;&#9;&#9;&#9;&#9;c-2.6-2.8-6.4-4.8-10.7-5.4v-3.1c0-1-0.8-1.8-1.8-1.8H333c-1,0-1.8,0.8-1.8,1.8v3c-7.3,0.7-12.5,5.5-12.5,11.9&#10;&#9;&#9;&#9;&#9;&#9;&#9;&#9;&#9;c0,6.6,5,9.9,9.2,11.7l3.3,1.4v16.7c-4.3-0.4-8.2-2.5-11.2-5.6l-3.4,4c3.7,3.8,8.8,6.4,14.6,6.7v2.9c0,1,0.8,1.8,1.8,1.8h0.8&#10;&#9;&#9;&#9;&#9;&#9;&#9;&#9;&#9;c1,0,1.8-0.8,1.8-1.8v-3.1C343.2,498.5,347.8,493.4,347.8,487z M324.5,464.7c0-3.6,2.6-6,6.7-6.5v13.7&#10;&#9;&#9;&#9;&#9;&#9;&#9;&#9;&#9;C327.9,470.4,324.5,468.7,324.5,464.7z M335.6,494.6v-14.5c3.7,1.7,6.3,3.3,6.3,7.4C341.9,491.1,339.6,493.7,335.6,494.6z"/>
						</g>
					</g>
				</g><path d="M 231.199997 522.599976 H 433.099991 V 553.899975 H 231.199997 V 522.599976 Z" fill="#AAC388" transform="matrix(1, 0, 0, 1, 0, -7.105427357601002e-15)"/><path d="M 231.199997 525.400024 H 433.099991 V 527.300024 H 231.199997 V 525.400024 Z" fill="#94AB77" transform="matrix(1, 0, 0, 1, 0, -7.105427357601002e-15)"/><path d="M 231.199997 528.900024 H 433.099991 V 530.800024 H 231.199997 V 528.900024 Z" opacity="0.5" fill="#94AB77" transform="matrix(1, 0, 0, 1, 0, -7.105427357601002e-15)"/><path d="M 231.199997 532.400024 H 433.099991 V 534.300024 H 231.199997 V 532.400024 Z" fill="#94AB77" transform="matrix(1, 0, 0, 1, 0, -7.105427357601002e-15)"/><path d="M 231.199997 535.799988 H 433.099991 V 537.699988 H 231.199997 V 535.799988 Z" opacity="0.5" fill="#94AB77" transform="matrix(1, 0, 0, 1, 0, -7.105427357601002e-15)"/><path d="M 231.199997 539.299988 H 433.099991 V 541.199988 H 231.199997 V 539.299988 Z" fill="#94AB77" transform="matrix(1, 0, 0, 1, 0, -7.105427357601002e-15)"/><path d="M 231.199997 542.700012 H 433.099991 V 544.600012 H 231.199997 V 542.700012 Z" opacity="0.5" fill="#94AB77" transform="matrix(1, 0, 0, 1, 0, -7.105427357601002e-15)"/><path d="M 231.199997 546.200012 H 433.099991 V 548.100012 H 231.199997 V 546.200012 Z" fill="#94AB77" transform="matrix(1, 0, 0, 1, 0, -7.105427357601002e-15)"/><path d="M 231.199997 549.599976 H 433.099991 V 551.499976 H 231.199997 V 549.599976 Z" opacity="0.5" fill="#94AB77" transform="matrix(1, 0, 0, 1, 0, -7.105427357601002e-15)"/><g transform="matrix(1, 0, 0, 1, 0, -7.105427357601002e-15)">
				<g>
					<g>
						<path d="M 970.599976 398.5 H 1129.899979 V 428.299999 H 970.599976 V 398.5 Z" fill="#FCB116"/>
						<path d="M 983.700012 398.5 H 990.900012 V 428.299999 H 983.700012 V 398.5 Z" fill="#FFF570"/>
						<path d="M 993.299988 398.5 H 1008.699987 V 428.299999 H 993.299988 V 398.5 Z" fill="#FFF570"/>
						<g>
							<path d="M 970.599976 402.5 H 1129.899979 V 405.7 H 970.599976 V 402.5 Z" fill="#FFD140"/>
							<path d="M 970.599976 421.399994 H 1129.899979 V 424.599994 H 970.599976 V 421.399994 Z" fill="#FFD140"/>
						</g>
					</g>
				</g>
			</g><g transform="matrix(1, 0, 0, 1, 0, -7.105427357601002e-15)">
					<g>
						<path d="M 987.299988 428.299988 H 1146.599991 V 458.099987 H 987.299988 V 428.299988 Z" fill="#FCB116"/>
						<path d="M 1000.400024 428.299988 H 1007.600024 V 458.099987 H 1000.400024 V 428.299988 Z" fill="#FFF570"/>
						<path d="M 1009.900024 428.299988 H 1025.300024 V 458.099987 H 1009.900024 V 428.299988 Z" fill="#FFF570"/>
						<g>
							<path d="M 987.299988 432.299988 H 1146.599991 V 435.499988 H 987.299988 V 432.299988 Z" fill="#FFD140"/>
							<path d="M 987.299988 451.100006 H 1146.599991 V 454.300006 H 987.299988 V 451.100006 Z" fill="#FFD140"/>
						</g>
					</g>
				</g><g transform="matrix(1, 0, 0, 1, 0, -7.105427357601002e-15)">
					<g>
						<path d="M 955 458.100006 H 1114.300003 V 487.900005 H 955 V 458.100006 Z" fill="#FCB116"/>
						<path d="M 968.099976 458.100006 H 975.299975 V 487.900005 H 968.099976 V 458.100006 Z" fill="#FFF570"/>
						<path d="M 977.599976 458.100006 H 992.999975 V 487.900005 H 977.599976 V 458.100006 Z" fill="#FFF570"/>
						<g>
							<path d="M 955 462.100006 H 1114.300003 V 465.300006 H 955 V 462.100006 Z" fill="#FFD140"/>
							<path d="M 955 480.899994 H 1114.300003 V 484.099994 H 955 V 480.899994 Z" fill="#FFD140"/>
						</g>
					</g>
				</g><g transform="matrix(1, 0, 0, 1, 0, -7.105427357601002e-15)">
					<g>
						<path d="M 977.599976 487.899994 H 1136.899979 V 517.699993 H 977.599976 V 487.899994 Z" fill="#FCB116"/>
						<path d="M 990.700012 487.899994 H 997.900012 V 517.699993 H 990.700012 V 487.899994 Z" fill="#FFF570"/>
						<path d="M 1000.200012 487.899994 H 1015.600012 V 517.699993 H 1000.200012 V 487.899994 Z" fill="#FFF570"/>
						<g>
							<path d="M 977.599976 491.899994 H 1136.899979 V 495.099994 H 977.599976 V 491.899994 Z" fill="#FFD140"/>
							<path d="M 977.599976 510.700012 H 1136.899979 V 513.900012 H 977.599976 V 510.700012 Z" fill="#FFD140"/>
						</g>
					</g>
				</g><path d="M 987.299988 428.299988 H 1080.899986 V 432.299988 H 987.299988 V 428.299988 Z" opacity="0.3" fill="#C67715" transform="matrix(1, 0, 0, 1, 0, -7.105427357601002e-15)"/><path d="M 955.099976 458.100006 H 1080.899979 V 462.100006 H 955.099976 V 458.100006 Z" opacity="0.3" fill="#C67715" transform="matrix(1, 0, 0, 1, 0, -7.105427357601002e-15)"/><path d="M 977.599976 487.899994 H 1080.999977 V 491.899994 H 977.599976 V 487.899994 Z" opacity="0.3" fill="#C67715" transform="matrix(1, 0, 0, 1, 0, -7.105427357601002e-15)"/><path opacity="0.3" fill="#C67715" d="M1060.7,398.5h-29.9c0,0-5.5,106.4,67.3,119.1h38.8l-14.1-108.3L1060.7,398.5z" transform="matrix(1, 0, 0, 1, 0, -7.105427357601002e-15)"/><path d="M 1209.500023 438 A 79.599998 79.599998 0 0 1 1129.900024 517.599998 A 79.599998 79.599998 0 0 1 1050.300026 438 A 79.599998 79.599998 0 0 1 1129.900024 358.400002 A 79.599998 79.599998 0 0 1 1209.500023 438 Z" fill="#FFC40C" transform="matrix(1, 0, 0, 1, 0, -7.105427357601002e-15)"/><path fill="#FFD140" d="M1081.6,494.5c0,0-0.7-0.6-2.1-1.8c-0.7-0.6-1.5-1.3-2.5-2.2c-0.5-0.5-1-0.9-1.5-1.5&#10;&#9;&#9;&#9;&#9;&#9;c-0.5-0.5-1.1-1.1-1.6-1.7c-2.3-2.5-4.9-5.6-7.5-9.6c-2.6-3.9-5.2-8.7-7.2-14.1c-0.6-1.3-1-2.8-1.5-4.2c-0.5-1.4-0.8-3-1.3-4.5&#10;&#9;&#9;&#9;&#9;&#9;c-0.3-1.5-0.7-3.1-1-4.7c-0.1-0.8-0.2-1.6-0.4-2.4l-0.2-1.2l-0.1-1.2c-0.1-0.8-0.2-1.7-0.2-2.5c-0.1-0.8-0.1-1.7-0.1-2.6&#10;&#9;&#9;&#9;&#9;&#9;c0-0.9-0.1-1.7-0.1-2.6c0-0.9,0-1.7,0-2.6c0.1-3.5,0.4-7.2,1.1-10.8c0.6-3.6,1.5-7.3,2.8-10.8c1.2-3.6,2.7-7.1,4.5-10.5&#10;&#9;&#9;&#9;&#9;&#9;c1.8-3.4,3.8-6.7,6.2-9.9c2.3-3.1,4.9-6.1,7.7-8.9c2.8-2.8,5.8-5.3,9-7.6c3.2-2.3,6.5-4.3,10-6c3.4-1.7,7-3.2,10.6-4.4&#10;&#9;&#9;&#9;&#9;&#9;c3.6-1.1,7.2-2.1,10.9-2.6c3.6-0.6,7.2-1,10.8-1c0.9,0,1.7-0.1,2.7,0c0.9,0,1.7,0.1,2.6,0.1l1.3,0.1l1.3,0.1&#10;&#9;&#9;&#9;&#9;&#9;c0.9,0.1,1.7,0.2,2.5,0.2c6.7,0.8,12.8,2.5,18.3,4.6c5.4,2.1,10.1,4.8,14,7.4c1,0.7,1.9,1.3,2.8,2c0.9,0.7,1.7,1.3,2.5,1.9&#10;&#9;&#9;&#9;&#9;&#9;c0.8,0.7,1.5,1.3,2.2,1.9c0.7,0.6,1.4,1.2,2,1.8c0.6,0.6,1.2,1.1,1.7,1.7c0.5,0.5,1,1.1,1.4,1.5c0.9,1,1.6,1.8,2.2,2.5&#10;&#9;&#9;&#9;&#9;&#9;c1.2,1.4,1.8,2.1,1.8,2.1s-0.7-0.7-1.9-2c-0.6-0.7-1.4-1.4-2.3-2.3c-0.5-0.4-1-0.9-1.5-1.5c-0.6-0.5-1.2-1-1.8-1.6&#10;&#9;&#9;&#9;&#9;&#9;c-0.6-0.6-1.3-1.1-2-1.7c-0.7-0.6-1.5-1.2-2.3-1.8c-0.8-0.6-1.7-1.2-2.6-1.8c-0.9-0.6-1.9-1.2-2.8-1.8c-4-2.4-8.7-4.8-14-6.7&#10;&#9;&#9;&#9;&#9;&#9;c-5.4-1.9-11.4-3.4-17.9-4c-0.8-0.1-1.6-0.1-2.4-0.2l-1.2-0.1l-1.3,0c-0.8,0-1.7,0-2.6,0c-0.8,0-1.7,0-2.5,0.1&#10;&#9;&#9;&#9;&#9;&#9;c-1.7,0-3.4,0.2-5.2,0.4c-0.9,0.1-1.7,0.2-2.6,0.3l-1.3,0.2l-1.3,0.2c-7,1.2-14,3.6-20.6,7c-3.3,1.7-6.5,3.6-9.5,5.9&#10;&#9;&#9;&#9;&#9;&#9;c-3,2.2-5.9,4.6-8.6,7.3c-2.7,2.7-5.2,5.5-7.4,8.5c-2.2,3-4.2,6.2-6,9.5c-1.8,3.3-3.2,6.7-4.4,10.1c-1.2,3.4-2.1,6.9-2.8,10.4&#10;&#9;&#9;&#9;&#9;&#9;c-0.7,3.5-1,6.9-1.3,10.3c0,0.9-0.1,1.7-0.1,2.6c0,0.8,0,1.7,0,2.5c0,0.8,0,1.7,0.1,2.5c0.1,0.8,0.1,1.6,0.2,2.5&#10;&#9;&#9;&#9;&#9;&#9;c0.5,6.5,1.9,12.6,3.8,18c1.9,5.4,4.2,10.1,6.5,14.1c2.4,4,4.9,7.3,7,9.8c1.1,1.3,2.1,2.4,3,3.3c0.9,1,1.7,1.8,2.3,2.4&#10;&#9;&#9;&#9;&#9;&#9;C1080.9,493.9,1081.6,494.5,1081.6,494.5z" transform="matrix(1, 0, 0, 1, 0, -7.105427357601002e-15)"/><path fill="#E56E1F" d="M1129.9,506.1c-37.5,0-68.1-30.5-68.1-68.1c0-37.5,30.5-68.1,68.1-68.1s68.1,30.5,68.1,68.1&#10;&#9;&#9;&#9;&#9;&#9;C1198,475.5,1167.5,506.1,1129.9,506.1z M1129.9,375.9c-34.3,0-62.1,27.9-62.1,62.1c0,34.3,27.9,62.1,62.1,62.1&#10;&#9;&#9;&#9;&#9;&#9;s62.1-27.9,62.1-62.1C1192.1,403.8,1164.2,375.9,1129.9,375.9z" transform="matrix(1, 0, 0, 1, 0, -7.105427357601002e-15)"/><path opacity="0.15" fill="#C67715" d="M1131.2,480.8l48.2,19.6c18.4-14.6,30.2-37.1,30.2-62.4c0-4.1-0.3-8.1-0.9-12l-77.5-30.8&#10;&#9;&#9;&#9;&#9;&#9;V480.8z" transform="matrix(1, 0, 0, 1, 0, -7.105427357601002e-15)"/><path fill="#E56E1F" d="M1153.7,454.1c0-10.2-6.2-14.9-14.2-18.4l-4.4-1.9v-23.5c4.5,0.8,8.4,3,11.6,6.1l4.6-5.7&#10;&#9;&#9;&#9;&#9;&#9;c-4-4.2-9.7-7.3-16.3-8.2v-4.7c0-1.5-1.2-2.8-2.8-2.8h-1.2c-1.5,0-2.8,1.2-2.8,2.8v4.5c-11.1,1-19,8.4-19,18.1&#10;&#9;&#9;&#9;&#9;&#9;c0,10.1,7.6,15,14,17.7l5,2.2v25.4c-6.5-0.6-12.5-3.8-17-8.5l-5.2,6.1c5.6,5.8,13.3,9.7,22.2,10.1v4.4c0,1.5,1.2,2.8,2.8,2.8&#10;&#9;&#9;&#9;&#9;&#9;h1.2c1.5,0,2.8-1.2,2.8-2.8v-4.8C1146.7,471.6,1153.7,463.7,1153.7,454.1z M1118.2,420.1c0-5.4,4-9.1,10.2-9.9V431&#10;&#9;&#9;&#9;&#9;&#9;C1123.4,428.8,1118.2,426.2,1118.2,420.1z M1135.1,465.5v-22.1c5.6,2.6,9.7,5,9.7,11.3C1144.8,460.2,1141.3,464.2,1135.1,465.5z&#10;&#9;&#9;&#9;&#9;&#9;" transform="matrix(1, 0, 0, 1, 0, -7.105427357601002e-15)"/><g transform="matrix(1, 0, 0, 1, 0, -7.105427357601002e-15)">
				<g>
					<path d="M 673.5 527.4000244140625 L 661.5999755859375 520.9000244140625 L 680 518.2999877929688 L 692 524.7999877929688 Z" fill="#96221F"/>
				</g>
				<g>
					<path d="M 605.5 559.2000122070312 L 593.5 552.7000122070312 L 593.5999755859375 530.4000244140625 L 605.5 537 Z" fill="#761414"/>
				</g>
				<g>
					<path d="M 605.5 537 L 593.5999755859375 530.4000244140625 L 612.2000122070312 527.7999877929688 L 624.2000122070312 534.2999877929688 Z" fill="#96221F"/>
				</g>
				<path fill="#761414" d="M679.1,438.9l0.1-50.8l-12-6.5l-0.1,50.8c0,2,0.6,3.7,1.6,5c0.6,0.8,1.4,1.5,2.2,1.9l12,6.5&#10;&#9;&#9;&#9;&#9;&#9;C680.6,444.7,679.1,442.1,679.1,438.9z"/>
				<path fill="#761414" d="M689.2,354.1c0.3,0,0.6,0.1,0.9,0.1c0.1,0,0.3,0.1,0.4,0.1c0.3,0.1,0.6,0.2,0.8,0.3&#10;&#9;&#9;&#9;&#9;&#9;c0.2,0.1,0.3,0.1,0.5,0.2l-12-6.5c-0.1,0-0.2-0.1-0.3-0.1c-0.1,0-0.2-0.1-0.2-0.1c-0.3-0.1-0.5-0.2-0.8-0.3&#10;&#9;&#9;&#9;&#9;&#9;c-0.1,0-0.1-0.1-0.2-0.1c-0.1,0-0.1,0-0.2,0c-0.3-0.1-0.6-0.1-0.9-0.1c-0.1,0-0.3,0-0.4,0c-0.4,0-0.9,0-1.3,0.1l-6.3,0.9&#10;&#9;&#9;&#9;&#9;&#9;l-1.9,0.3l-5.4,0.8l-19,2.7l12,6.5l19-2.7l5.4-0.8l1.9-0.3l6.3-0.9c0.5-0.1,0.9-0.1,1.3-0.1&#10;&#9;&#9;&#9;&#9;&#9;C688.9,354.1,689.1,354.1,689.2,354.1z"/>
				<path d="M 612.5 389.3999938964844 L 612.4000244140625 447.3999938964844 L 612.4000244140625 449 L 612.2000122070312 527.7999877929688 L 624.2000122070312 534.2999877929688 L 624.2999877929688 455.5 L 624.2999877929688 453.8999938964844 L 624.4000244140625 395.8999938964844 Z" fill="#761414"/>
				<path fill="#96221F" d="M632.2,341.9c0.1-0.4,0.1-0.8,0.2-1.2c0-0.2,0.1-0.5,0.2-0.7c0.1-0.4,0.2-0.7,0.3-1.1&#10;&#9;&#9;&#9;&#9;&#9;c0.1-0.3,0.2-0.5,0.2-0.8c0.1-0.3,0.2-0.7,0.3-1c0-0.1,0.1-0.2,0.1-0.4c0.2-0.4,0.3-0.8,0.5-1.3c0.1-0.2,0.2-0.4,0.3-0.6&#10;&#9;&#9;&#9;&#9;&#9;c0.1-0.3,0.3-0.6,0.5-0.9c0.4-0.7,0.8-1.4,1.2-2c0.1-0.1,0.1-0.2,0.2-0.2c0.4-0.5,0.8-1,1.2-1.5c0.1-0.2,0.3-0.3,0.4-0.5&#10;&#9;&#9;&#9;&#9;&#9;c0.4-0.4,0.8-0.8,1.2-1.2c0.1-0.1,0.3-0.2,0.4-0.4c0.6-0.5,1.2-1,1.8-1.4c0.3-0.2,0.6-0.4,0.8-0.6c0.2-0.1,0.4-0.2,0.5-0.3&#10;&#9;&#9;&#9;&#9;&#9;c0.4-0.2,0.7-0.4,1.1-0.6c0.1-0.1,0.3-0.1,0.4-0.2c0.5-0.2,1-0.4,1.5-0.6c0.1-0.1,0.3-0.1,0.4-0.1c0.4-0.1,0.8-0.2,1.2-0.4&#10;&#9;&#9;&#9;&#9;&#9;c0.2,0,0.3-0.1,0.5-0.1c0.5-0.1,1-0.2,1.6-0.3c0.5-0.1,1-0.1,1.4-0.1c0.1,0,0.3,0,0.4,0c0.3,0,0.6,0,1,0c0.2,0,0.3,0,0.5,0&#10;&#9;&#9;&#9;&#9;&#9;c0.3,0,0.6,0.1,0.9,0.1c0.1,0,0.3,0,0.4,0.1c0.4,0.1,0.7,0.1,1.1,0.2c0.1,0,0.1,0,0.2,0c0.4,0.1,0.9,0.2,1.3,0.4&#10;&#9;&#9;&#9;&#9;&#9;c0.1,0,0.2,0.1,0.4,0.1c0.3,0.1,0.6,0.2,0.9,0.4c0.2,0.1,0.5,0.2,0.7,0.4l-12-6.5c-0.2-0.1-0.3-0.2-0.5-0.3&#10;&#9;&#9;&#9;&#9;&#9;c-0.1,0-0.1-0.1-0.2-0.1c-0.3-0.1-0.6-0.3-0.9-0.4c-0.1,0-0.2-0.1-0.4-0.1c-0.4-0.1-0.8-0.3-1.3-0.4c0,0,0,0,0,0&#10;&#9;&#9;&#9;&#9;&#9;c-0.1,0-0.1,0-0.2,0c-0.4-0.1-0.7-0.2-1.1-0.2c-0.1,0-0.3,0-0.4-0.1c-0.3,0-0.6-0.1-0.9-0.1c-0.2,0-0.3,0-0.5,0&#10;&#9;&#9;&#9;&#9;&#9;c-0.3,0-0.6,0-1,0c-0.1,0-0.3,0-0.4,0c-0.5,0-0.9,0.1-1.4,0.1c-0.5,0.1-1.1,0.2-1.6,0.3c-0.2,0-0.3,0.1-0.5,0.1&#10;&#9;&#9;&#9;&#9;&#9;c-0.4,0.1-0.8,0.2-1.2,0.4c-0.1,0-0.3,0.1-0.4,0.1c-0.5,0.2-1,0.4-1.4,0.6c0,0,0,0,0,0c-0.1,0.1-0.3,0.1-0.4,0.2&#10;&#9;&#9;&#9;&#9;&#9;c-0.4,0.2-0.8,0.4-1.1,0.6c-0.2,0.1-0.4,0.2-0.5,0.3c-0.2,0.1-0.5,0.3-0.7,0.4c0,0-0.1,0.1-0.1,0.1c-0.6,0.4-1.2,0.9-1.8,1.4&#10;&#9;&#9;&#9;&#9;&#9;c0,0-0.1,0.1-0.1,0.1c-0.1,0.1-0.2,0.2-0.3,0.3c-0.4,0.4-0.8,0.8-1.2,1.2c-0.1,0.1-0.2,0.2-0.3,0.3c-0.1,0.1-0.1,0.2-0.2,0.2&#10;&#9;&#9;&#9;&#9;&#9;c-0.4,0.5-0.8,1-1.2,1.5c0,0.1-0.1,0.1-0.2,0.2c0,0,0,0,0,0c-0.4,0.6-0.9,1.3-1.2,2c0,0.1-0.1,0.1-0.1,0.2&#10;&#9;&#9;&#9;&#9;&#9;c-0.1,0.2-0.2,0.4-0.3,0.7c-0.1,0.2-0.2,0.4-0.3,0.6c-0.2,0.4-0.4,0.8-0.5,1.3c0,0.1-0.1,0.2-0.1,0.4c0,0,0,0,0,0.1&#10;&#9;&#9;&#9;&#9;&#9;c-0.1,0.3-0.2,0.6-0.3,1c-0.1,0.3-0.2,0.5-0.2,0.8c-0.1,0.4-0.2,0.7-0.3,1.1c-0.1,0.2-0.1,0.5-0.2,0.7c-0.1,0.4-0.1,0.8-0.2,1.2&#10;&#9;&#9;&#9;&#9;&#9;c0,0.2-0.1,0.4-0.1,0.6c-0.1,0.6-0.1,1.3-0.1,1.9c0,6.6,3.2,11.9,8,14.5l12,6.5c-4.8-2.6-8-7.9-8-14.5c0-0.6,0-1.3,0.1-1.9&#10;&#9;&#9;&#9;&#9;&#9;C632.1,342.3,632.2,342.1,632.2,341.9z"/>
				<path fill="#761414" d="M631.6,353.8l-19,2.7l-5.4,0.8l-1.9,0.3l-6.3,0.9c-0.4,0.1-0.7,0.1-1.1,0.2c-0.1,0-0.2,0.1-0.3,0.1&#10;&#9;&#9;&#9;&#9;&#9;c-0.3,0.1-0.6,0.2-1,0.4c0,0,0,0-0.1,0c0,0,0,0,0,0c-0.4,0.2-0.8,0.4-1.2,0.7c0,0-0.1,0-0.1,0.1c0,0,0,0-0.1,0.1&#10;&#9;&#9;&#9;&#9;&#9;c-0.3,0.2-0.6,0.4-0.9,0.7c0,0,0,0-0.1,0c0,0-0.1,0.1-0.1,0.1c-0.2,0.2-0.4,0.4-0.6,0.6c0,0-0.1,0.1-0.1,0.1&#10;&#9;&#9;&#9;&#9;&#9;c0,0-0.1,0.1-0.1,0.1c-0.2,0.2-0.4,0.5-0.6,0.7c0,0-0.1,0.1-0.1,0.1c0,0,0,0,0,0c-0.2,0.3-0.4,0.6-0.6,1c0,0,0,0.1-0.1,0.1&#10;&#9;&#9;&#9;&#9;&#9;c0,0,0,0.1-0.1,0.1c-0.2,0.4-0.4,0.8-0.6,1.2c0,0,0,0,0,0c-0.1,0.2-0.1,0.3-0.1,0.5c0,0.1-0.1,0.2-0.1,0.4&#10;&#9;&#9;&#9;&#9;&#9;c0,0.2-0.1,0.4-0.1,0.5c0,0.1-0.1,0.2-0.1,0.3c0,0.2-0.1,0.4-0.1,0.6c0,0.1,0,0.2,0,0.3c0,0.3,0,0.6,0,0.9l-0.1,74.8&#10;&#9;&#9;&#9;&#9;&#9;c0,3.2,1.5,5.7,3.8,7l12,6.5c-2.3-1.2-3.8-3.8-3.8-7l0.1-74.8c0-0.3,0-0.6,0-0.9c0-0.1,0-0.2,0-0.3c0-0.2,0-0.4,0.1-0.6&#10;&#9;&#9;&#9;&#9;&#9;c0-0.1,0.1-0.2,0.1-0.3c0-0.2,0.1-0.4,0.1-0.5c0-0.1,0.1-0.2,0.1-0.4c0.1-0.2,0.1-0.3,0.2-0.5c0.2-0.4,0.3-0.8,0.6-1.2&#10;&#9;&#9;&#9;&#9;&#9;c0-0.1,0.1-0.2,0.1-0.2c0.2-0.3,0.4-0.7,0.6-1c0,0,0.1-0.1,0.1-0.1c0.2-0.3,0.4-0.5,0.6-0.7c0.1-0.1,0.1-0.2,0.2-0.2&#10;&#9;&#9;&#9;&#9;&#9;c0.2-0.2,0.4-0.4,0.6-0.6c0.1-0.1,0.1-0.1,0.2-0.2c0.3-0.2,0.6-0.5,0.9-0.7c0.1,0,0.1-0.1,0.2-0.1c0.4-0.3,0.8-0.5,1.2-0.7&#10;&#9;&#9;&#9;&#9;&#9;c0,0,0.1,0,0.1,0c0.3-0.1,0.6-0.3,1-0.4c0.1,0,0.2-0.1,0.3-0.1c0.4-0.1,0.7-0.2,1.1-0.2l6.3-0.9l1.9-0.3l5.4-0.8l19-2.7&#10;&#9;&#9;&#9;&#9;&#9;L631.6,353.8z"/>
				<path fill="#B42C26" d="M687.4,354.1l-6.3,0.9l-1.9,0.3l-5.4,0.8l-19,2.7c6.7-3.5,11.6-11,11.6-19.1c0-10.2-7.7-17.5-17.1-16.1&#10;&#9;&#9;&#9;&#9;&#9;c-9.5,1.3-17.2,10.7-17.2,21c0,8.1,4.8,14.3,11.5,15.9l-19,2.7l-5.4,0.8l-1.9,0.3l-6.3,0.9c-4.5,0.6-8.2,5.1-8.2,10l-0.1,74.8&#10;&#9;&#9;&#9;&#9;&#9;c0,4.9,3.7,8.4,8.2,7.7c4.5-0.6,8.2-5.1,8.2-10l0.1-50.8l5.4-0.8l-0.1,58l0,1.6l-0.1,78.8l-18.6,2.6l0,22.3l86.4-12.1l0-22.3&#10;&#9;&#9;&#9;&#9;&#9;l-18.4,2.6l0.1-78.8l0-1.6l0.1-58l5.4-0.8l-0.1,50.8c0,4.9,3.7,8.4,8.2,7.7c4.5-0.6,8.2-5.1,8.2-10l0.1-74.8&#10;&#9;&#9;&#9;&#9;&#9;C695.7,357,692,353.5,687.4,354.1z"/>
				<g>
					<path d="M 652.2000122070312 530.4000244140625 L 645.5 531.2999877929688 L 645.5999755859375 452.5 L 652.4000244140625 451.6000061035156 Z" fill="#761414"/>
				</g>
			</g><path fill="#25966B" d="M827.5,355.3c0.3,0,0.5,0.1,0.8,0.1c0.1,0,0.3,0.1,0.4,0.1c0.3,0.1,0.5,0.2,0.7,0.3&#10;&#9;&#9;&#9;&#9;&#9;c0.1,0.1,0.3,0.1,0.4,0.2l-12-6.5c-0.1,0-0.1-0.1-0.2-0.1c-0.1,0-0.2-0.1-0.2-0.1c-0.2-0.1-0.5-0.2-0.7-0.3&#10;&#9;&#9;&#9;&#9;&#9;c-0.1,0-0.1-0.1-0.2-0.1c-0.1,0-0.1,0-0.2,0c-0.3-0.1-0.5-0.1-0.8-0.1c-0.1,0-0.2,0-0.4,0c-0.4,0-0.8,0-1.2,0.1l-5.3,0.8&#10;&#9;&#9;&#9;&#9;&#9;l-18.9,2.7l12,6.5l18.9-2.7l5.3-0.8c0.4-0.1,0.8-0.1,1.2-0.1C827.3,355.2,827.4,355.3,827.5,355.3z" transform="matrix(1, 0, 0, 1, 0, -7.105427357601002e-15)"/><path d="M 820.4000244140625 527.4000244140625 L 808.4000244140625 520.9000244140625 L 826.7999877929688 518.2999877929688 L 838.7999877929688 524.7999877929688 Z" fill="#25966B" transform="matrix(1, 0, 0, 1, 0, -7.105427357601002e-15)"/><path fill="#127754" d="M837.7,435.4l-17.1-56.4l-12-6.5l17.1,56.4c0.5,1.5,1.3,2.7,2.3,3.6c0.3,0.3,0.7,0.5,1.1,0.8l12,6.5&#10;&#9;&#9;&#9;&#9;&#9;C839.6,438.9,838.3,437.4,837.7,435.4z" transform="matrix(1, 0, 0, 1, 0, -7.105427357601002e-15)"/><path d="M 771.0999755859375 534.2999877929688 L 759.0999755859375 527.7999877929688 L 759.2000122070312 461.6000061035156 L 771.2000122070312 468.1000061035156 Z" fill="#127754" transform="matrix(1, 0, 0, 1, 0, -7.105427357601002e-15)"/><path d="M 753 470.70001220703125 L 741 464.20001220703125 L 759.4000244140625 389.29998779296875 L 771.2999877929688 395.79998779296875 Z" fill="#127754" transform="matrix(1, 0, 0, 1, 0, -7.105427357601002e-15)"/><path d="M 771.2999877929688 395.79998779296875 L 759.4000244140625 389.29998779296875 L 759.4000244140625 378.3999938964844 L 771.2999877929688 384.8999938964844 Z" fill="#127754" transform="matrix(1, 0, 0, 1, 0, -7.105427357601002e-15)"/><path fill="#25966B" d="M798.9,323.3c0.2,0,0.3,0,0.5,0c0.3,0,0.6,0.1,0.9,0.1c0.1,0,0.3,0,0.4,0.1c0.4,0.1,0.7,0.1,1.1,0.2&#10;&#9;&#9;&#9;&#9;&#9;c0.1,0,0.1,0,0.2,0c0.4,0.1,0.9,0.2,1.3,0.4c0.1,0,0.2,0.1,0.4,0.1c0.3,0.1,0.6,0.2,0.9,0.4c0.2,0.1,0.5,0.2,0.7,0.4l0,0&#10;&#9;&#9;&#9;&#9;&#9;c0,0,0,0,0,0l-12-6.5c-0.2-0.1-0.3-0.2-0.5-0.3c-0.1,0-0.1-0.1-0.2-0.1c-0.3-0.1-0.6-0.3-0.9-0.4c-0.1,0-0.2-0.1-0.4-0.1&#10;&#9;&#9;&#9;&#9;&#9;c-0.4-0.1-0.8-0.3-1.3-0.4c0,0,0,0,0,0c-0.1,0-0.1,0-0.2,0c-0.4-0.1-0.7-0.2-1.1-0.2c-0.1,0-0.3,0-0.4-0.1&#10;&#9;&#9;&#9;&#9;&#9;c-0.3,0-0.6-0.1-0.9-0.1c-0.2,0-0.3,0-0.5,0c-0.3,0-0.6,0-1,0c-0.1,0-0.3,0-0.4,0c-0.5,0-0.9,0.1-1.4,0.1&#10;&#9;&#9;&#9;&#9;&#9;c-0.5,0.1-1.1,0.2-1.6,0.3c-0.2,0-0.3,0.1-0.5,0.1c-0.4,0.1-0.8,0.2-1.2,0.4c-0.1,0-0.3,0.1-0.4,0.1c-0.5,0.2-1,0.4-1.4,0.6&#10;&#9;&#9;&#9;&#9;&#9;c0,0,0,0,0,0c-0.1,0.1-0.3,0.1-0.4,0.2c-0.4,0.2-0.8,0.4-1.1,0.6c-0.2,0.1-0.4,0.2-0.5,0.3c-0.2,0.1-0.5,0.3-0.7,0.4&#10;&#9;&#9;&#9;&#9;&#9;c0,0-0.1,0.1-0.1,0.1c-0.6,0.4-1.2,0.9-1.8,1.4c0,0-0.1,0.1-0.1,0.1c-0.1,0.1-0.2,0.2-0.3,0.3c-0.4,0.4-0.8,0.8-1.2,1.2&#10;&#9;&#9;&#9;&#9;&#9;c-0.1,0.1-0.2,0.2-0.3,0.3c-0.1,0.1-0.1,0.2-0.2,0.2c-0.4,0.5-0.8,1-1.2,1.5c0,0.1-0.1,0.1-0.2,0.2c0,0,0,0,0,0&#10;&#9;&#9;&#9;&#9;&#9;c-0.4,0.6-0.9,1.3-1.2,2c0,0.1-0.1,0.1-0.1,0.2c-0.1,0.2-0.2,0.4-0.3,0.7c-0.1,0.2-0.2,0.4-0.3,0.6c-0.2,0.4-0.4,0.8-0.5,1.2&#10;&#9;&#9;&#9;&#9;&#9;c0,0.1-0.1,0.2-0.2,0.4c0,0,0,0,0,0.1c-0.1,0.3-0.2,0.6-0.3,1c-0.1,0.3-0.2,0.5-0.2,0.8c-0.1,0.4-0.2,0.7-0.3,1.1&#10;&#9;&#9;&#9;&#9;&#9;c-0.1,0.2-0.1,0.5-0.2,0.7c-0.1,0.4-0.1,0.8-0.2,1.2c0,0.2-0.1,0.4-0.1,0.6c-0.1,0.6-0.1,1.3-0.1,1.9c0,2.9,0.6,5.5,1.7,7.8&#10;&#9;&#9;&#9;&#9;&#9;c0.9,2,2.2,3.6,3.8,5c0.3,0.2,0.5,0.4,0.8,0.6c0.5,0.4,1.1,0.8,1.7,1.1l12,6.5c-4.8-2.6-8-7.9-8-14.5c0-0.6,0-1.3,0.1-1.9&#10;&#9;&#9;&#9;&#9;&#9;c0-0.2,0.1-0.4,0.1-0.6c0.1-0.4,0.1-0.8,0.2-1.2c0-0.2,0.1-0.5,0.2-0.7c0.1-0.4,0.2-0.7,0.3-1.1c0.1-0.3,0.2-0.5,0.2-0.8&#10;&#9;&#9;&#9;&#9;&#9;c0.1-0.3,0.2-0.7,0.3-1c0-0.1,0.1-0.2,0.2-0.4c0.2-0.4,0.3-0.8,0.5-1.2c0.1-0.2,0.2-0.4,0.3-0.6c0.1-0.3,0.3-0.6,0.5-0.9&#10;&#9;&#9;&#9;&#9;&#9;c0.4-0.7,0.8-1.4,1.2-2c0.1-0.1,0.1-0.2,0.2-0.2c0.4-0.5,0.8-1,1.2-1.5c0.1-0.2,0.3-0.3,0.4-0.5c0.4-0.4,0.8-0.8,1.2-1.2&#10;&#9;&#9;&#9;&#9;&#9;c0.1-0.1,0.3-0.2,0.4-0.4c0.6-0.5,1.2-1,1.8-1.4c0.3-0.2,0.6-0.4,0.8-0.6c0.2-0.1,0.4-0.2,0.5-0.3c0.4-0.2,0.7-0.4,1.1-0.6&#10;&#9;&#9;&#9;&#9;&#9;c0.1-0.1,0.3-0.1,0.4-0.2c0.5-0.2,1-0.4,1.5-0.6c0.1-0.1,0.3-0.1,0.4-0.1c0.4-0.1,0.8-0.2,1.2-0.4c0.2,0,0.3-0.1,0.5-0.1&#10;&#9;&#9;&#9;&#9;&#9;c0.5-0.1,1-0.2,1.6-0.3c0.5-0.1,1-0.1,1.4-0.1c0.1,0,0.3,0,0.4,0C798.3,323.3,798.6,323.3,798.9,323.3z" transform="matrix(1, 0, 0, 1, 0, -7.105427357601002e-15)"/><path fill="#31B481" d="M853.3,427.6l-20.6-68.2c-0.9-3-3.7-4.6-6.7-4.2l-5.3,0.8l-18.9,2.7c6.7-3.5,11.6-11,11.6-19.1&#10;&#9;&#9;&#9;&#9;&#9;c0-10.2-7.7-17.5-17.1-16.1c-9.5,1.3-17.2,10.7-17.2,21c0,8.1,4.8,14.3,11.5,15.9l-19.3,2.7l-5.3,0.8c-3,0.4-5.8,2.8-6.8,6.1&#10;&#9;&#9;&#9;&#9;&#9;l-20.9,73.9c-1.3,4.7,0.7,9.4,4.8,10.6c1,0.3,2,0.3,3,0.2c3.5-0.5,6.7-3.4,7.8-7.3l17.6-62.3l0,10.9L753,470.7l18.2-2.6&#10;&#9;&#9;&#9;&#9;&#9;l-0.1,66.2l-18.7,2.6l0,22.3l86.4-12.1l0-22.3l-18.4,2.6l0.1-66.2l18.2-2.6l-18.1-69.7l0-9.8l17.1,56.4c1.1,3.6,4.3,5.6,7.8,5.1&#10;&#9;&#9;&#9;&#9;&#9;c1-0.1,2-0.5,3-1C852.6,437.2,854.6,431.9,853.3,427.6z" transform="matrix(1, 0, 0, 1, 0, -7.105427357601002e-15)"/><path d="M 752.2999877929688 559.2000122070312 L 740.2999877929688 552.7000122070312 L 740.4000244140625 530.4000244140625 L 752.2999877929688 536.9000244140625 Z" fill="#127754" transform="matrix(1, 0, 0, 1, 0, -7.105427357601002e-15)"/><path d="M 752.2999877929688 536.9000244140625 L 740.4000244140625 530.4000244140625 L 759.0999755859375 527.7999877929688 L 771.0999755859375 534.2999877929688 Z" fill="#25966B" transform="matrix(1, 0, 0, 1, 0, -7.105427357601002e-15)"/><path fill="#127754" d="M778.4,353.8l-19.3,2.7l-5.3,0.8c-0.4,0.1-0.7,0.1-1.1,0.2c-0.1,0-0.2,0.1-0.4,0.1&#10;&#9;&#9;&#9;&#9;&#9;c-0.2,0.1-0.5,0.2-0.7,0.3c0,0,0,0,0,0c-0.4,0.2-0.7,0.4-1.1,0.6c0,0,0,0-0.1,0c-0.2,0.2-0.4,0.3-0.6,0.5&#10;&#9;&#9;&#9;&#9;&#9;c-0.1,0.1-0.1,0.1-0.2,0.2c0,0,0,0,0,0c-0.2,0.2-0.5,0.5-0.7,0.7c0,0,0,0-0.1,0.1c-0.1,0.1-0.1,0.2-0.2,0.2&#10;&#9;&#9;&#9;&#9;&#9;c-0.1,0.2-0.3,0.3-0.4,0.5c0,0.1-0.1,0.1-0.1,0.2c-0.1,0.1-0.2,0.2-0.2,0.4c-0.1,0.1-0.1,0.2-0.2,0.3c0,0.1-0.1,0.2-0.1,0.3&#10;&#9;&#9;&#9;&#9;&#9;c-0.1,0.2-0.2,0.4-0.3,0.6c0,0.1-0.1,0.2-0.1,0.3c-0.1,0.2-0.1,0.4-0.2,0.6l-20.9,73.9c-1.2,4.1,0.2,8.3,3.4,10l12,6.5&#10;&#9;&#9;&#9;&#9;&#9;c-3.1-1.7-4.5-5.9-3.4-10l20.9-73.9c0.1-0.3,0.2-0.6,0.3-0.9c0.1-0.2,0.2-0.4,0.3-0.6c0.1-0.2,0.2-0.4,0.3-0.6&#10;&#9;&#9;&#9;&#9;&#9;c0.1-0.1,0.1-0.2,0.2-0.4c0.2-0.2,0.3-0.4,0.5-0.7c0.1-0.1,0.1-0.2,0.2-0.2c0.2-0.3,0.5-0.6,0.8-0.8c0.1-0.1,0.1-0.1,0.2-0.2&#10;&#9;&#9;&#9;&#9;&#9;c0.2-0.2,0.5-0.4,0.7-0.5c0.4-0.2,0.7-0.5,1.1-0.6c0.2-0.1,0.5-0.2,0.7-0.3c0.1,0,0.2-0.1,0.4-0.1c0.4-0.1,0.7-0.2,1.1-0.2&#10;&#9;&#9;&#9;&#9;&#9;l5.3-0.8l19.3-2.7L778.4,353.8z" transform="matrix(1, 0, 0, 1, 0, -7.105427357601002e-15)"/><path d="M 795.7999877929688 464.70001220703125 L 792.5 465.1000061035156 L 792.2999877929688 531.2999877929688 L 799.0999755859375 530.4000244140625 L 799.2000122070312 464.20001220703125 Z" fill="#127754" transform="matrix(1, 0, 0, 1, 0, -7.105427357601002e-15)"/><g transform="matrix(1, 0, 0, 1, 0, -7.105427357601002e-15)">
				<g>
					<path d="M 322.299988 656.5 H 589 V 923.200012 H 322.299988 V 656.5 Z" fill="#E6E7E8"/>
					<g>
						<path d="M 300.299988 901.900024 H 344.299988 V 944.500023 H 300.299988 V 901.900024 Z" fill="#E6E7E8"/>
						<path fill="#3C2415" d="M345.4,945.7h-46.3v-44.9h46.3V945.7z M301.4,943.4h41.7v-40.3h-41.7V943.4z"/>
					</g>
					<g>
						<path d="M 300.299988 635.200012 H 344.299988 V 677.800011 H 300.299988 V 635.200012 Z" fill="#E6E7E8"/>
						<path fill="#3C2415" d="M345.4,678.9h-46.3V634h46.3V678.9z M301.4,676.6h41.7v-40.3h-41.7V676.6z"/>
					</g>
					<g>
						<path d="M 568.400024 901.900024 H 612.400024 V 944.500023 H 568.400024 V 901.900024 Z" fill="#E6E7E8"/>
						<path fill="#3C2415" d="M613.5,945.7h-46.3v-44.9h46.3V945.7z M569.5,943.4h41.7v-40.3h-41.7V943.4z"/>
					</g>
					<g>
						<path d="M 568.400024 635.200012 H 612.400024 V 677.800011 H 568.400024 V 635.200012 Z" fill="#E6E7E8"/>
						<path fill="#3C2415" d="M613.5,678.9h-46.3V634h46.3V678.9z M569.5,676.6h41.7v-40.3h-41.7V676.6z"/>
					</g>
					<g>
						<path d="M 300.299988 677.799988 H 344.299988 V 702.699987 H 300.299988 V 677.799988 Z" fill="#E6E7E8"/>
						<path fill="#3C2415" d="M345.4,703.8h-46.3v-27.2h46.3V703.8z M301.4,701.5h41.7v-22.6h-41.7V701.5z"/>
					</g>
					<g>
						<path d="M 300.299988 702.700012 H 344.299988 V 727.600012 H 300.299988 V 702.700012 Z" fill="#E6E7E8"/>
						<path fill="#3C2415" d="M345.4,728.7h-46.3v-27.2h46.3V728.7z M301.4,726.4h41.7v-22.6h-41.7V726.4z"/>
					</g>
					<g>
						<path d="M 300.299988 727.599976 H 344.299988 V 752.499975 H 300.299988 V 727.599976 Z" fill="#E6E7E8"/>
						<path fill="#3C2415" d="M345.4,753.6h-46.3v-27.2h46.3V753.6z M301.4,751.3h41.7v-22.6h-41.7V751.3z"/>
					</g>
					<g>
						<path d="M 300.299988 752.5 H 344.299988 V 777.4 H 300.299988 V 752.5 Z" fill="#E6E7E8"/>
						<path fill="#3C2415" d="M345.4,778.5h-46.3v-27.2h46.3V778.5z M301.4,776.2h41.7v-22.6h-41.7V776.2z"/>
					</g>
					<g>
						<path d="M 300.299988 777.400024 H 344.299988 V 802.300024 H 300.299988 V 777.400024 Z" fill="#E6E7E8"/>
						<path fill="#3C2415" d="M345.4,803.4h-46.3v-27.2h46.3V803.4z M301.4,801.1h41.7v-22.6h-41.7V801.1z"/>
					</g>
					<g>
						<path d="M 300.299988 802.299988 H 344.299988 V 827.199987 H 300.299988 V 802.299988 Z" fill="#E6E7E8"/>
						<path fill="#3C2415" d="M345.4,828.3h-46.3v-27.2h46.3V828.3z M301.4,826h41.7v-22.6h-41.7V826z"/>
					</g>
					<g>
						<path d="M 300.299988 827.200012 H 344.299988 V 852.100012 H 300.299988 V 827.200012 Z" fill="#E6E7E8"/>
						<path fill="#3C2415" d="M345.4,853.2h-46.3V826h46.3V853.2z M301.4,851h41.7v-22.6h-41.7V851z"/>
					</g>
					<g>
						<path d="M 300.299988 852.099976 H 344.299988 V 876.999975 H 300.299988 V 852.099976 Z" fill="#E6E7E8"/>
						<path fill="#3C2415" d="M345.4,878.1h-46.3V851h46.3V878.1z M301.4,875.9h41.7v-22.6h-41.7V875.9z"/>
					</g>
					<g>
						<path d="M 300.299988 877 H 344.299988 V 901.9 H 300.299988 V 877 Z" fill="#E6E7E8"/>
						<path fill="#3C2415" d="M345.4,903.1h-46.3v-27.2h46.3V903.1z M301.4,900.8h41.7v-22.6h-41.7V900.8z"/>
					</g>
					<g>
						<path d="M 334.299988 877 H 344.299988 V 901.9 H 334.299988 V 877 Z" fill="#F9ED32"/>
						<path fill="#3C2415" d="M345.4,903.1h-12.2v-27.2h12.2V903.1z M335.4,900.8h7.7v-22.6h-7.7V900.8z"/>
					</g>
					<g>
						<path d="M 334.299988 827.200012 H 344.299988 V 852.100012 H 334.299988 V 827.200012 Z" fill="#F9ED32"/>
						<path fill="#3C2415" d="M345.4,853.2h-12.2V826h12.2V853.2z M335.4,851h7.7v-22.6h-7.7V851z"/>
					</g>
					<g>
						<path d="M 334.299988 802.299988 H 344.299988 V 827.199987 H 334.299988 V 802.299988 Z" fill="#F9ED32"/>
						<path fill="#3C2415" d="M345.4,828.3h-12.2v-27.2h12.2V828.3z M335.4,826h7.7v-22.6h-7.7V826z"/>
					</g>
					<g>
						<path d="M 334.299988 752.5 H 344.299988 V 777.4 H 334.299988 V 752.5 Z" fill="#DA1C5C"/>
						<path fill="#3C2415" d="M345.4,778.5h-12.2v-27.2h12.2V778.5z M335.4,776.2h7.7v-22.6h-7.7V776.2z"/>
					</g>
					<g>
						<path d="M 334.299988 702.700012 H 344.299988 V 727.600012 H 334.299988 V 702.700012 Z" fill="#DA1C5C"/>
						<path fill="#3C2415" d="M345.4,728.7h-12.2v-27.2h12.2V728.7z M335.4,726.4h7.7v-22.6h-7.7V726.4z"/>
					</g>
					<g>
						<path d="M 334.299988 677.799988 H 344.299988 V 702.699987 H 334.299988 V 677.799988 Z" fill="#DA1C5C"/>
						<path fill="#3C2415" d="M345.4,703.8h-12.2v-27.2h12.2V703.8z M335.4,701.5h7.7v-22.6h-7.7V701.5z"/>
					</g>
					<g>
						<path d="M 568.400024 677.799988 H 612.400024 V 702.699987 H 568.400024 V 677.799988 Z" fill="#E6E7E8"/>
						<path fill="#3C2415" d="M613.5,703.8h-46.3v-27.2h46.3V703.8z M569.5,701.5h41.7v-22.6h-41.7V701.5z"/>
					</g>
					<g>
						<path d="M 568.400024 702.700012 H 612.400024 V 727.600012 H 568.400024 V 702.700012 Z" fill="#E6E7E8"/>
						<path fill="#3C2415" d="M613.5,728.7h-46.3v-27.2h46.3V728.7z M569.5,726.4h41.7v-22.6h-41.7V726.4z"/>
					</g>
					<g>
						<path d="M 568.400024 727.599976 H 612.400024 V 752.499975 H 568.400024 V 727.599976 Z" fill="#E6E7E8"/>
						<path fill="#3C2415" d="M613.5,753.6h-46.3v-27.2h46.3V753.6z M569.5,751.3h41.7v-22.6h-41.7V751.3z"/>
					</g>
					<g>
						<path d="M 568.400024 752.5 H 612.400024 V 777.4 H 568.400024 V 752.5 Z" fill="#E6E7E8"/>
						<path fill="#3C2415" d="M613.5,778.5h-46.3v-27.2h46.3V778.5z M569.5,776.2h41.7v-22.6h-41.7V776.2z"/>
					</g>
					<g>
						<path d="M 568.400024 777.400024 H 612.400024 V 802.300024 H 568.400024 V 777.400024 Z" fill="#E6E7E8"/>
						<path fill="#3C2415" d="M613.5,803.4h-46.3v-27.2h46.3V803.4z M569.5,801.1h41.7v-22.6h-41.7V801.1z"/>
					</g>
					<g>
						<path d="M 568.400024 802.299988 H 612.400024 V 827.199987 H 568.400024 V 802.299988 Z" fill="#E6E7E8"/>
						<path fill="#3C2415" d="M613.5,828.3h-46.3v-27.2h46.3V828.3z M569.5,826h41.7v-22.6h-41.7V826z"/>
					</g>
					<g>
						<path d="M 568.400024 827.200012 H 612.400024 V 852.100012 H 568.400024 V 827.200012 Z" fill="#E6E7E8"/>
						<path fill="#3C2415" d="M613.5,853.2h-46.3V826h46.3V853.2z M569.5,851h41.7v-22.6h-41.7V851z"/>
					</g>
					<g>
						<path d="M 568.400024 852.099976 H 612.400024 V 876.999975 H 568.400024 V 852.099976 Z" fill="#E6E7E8"/>
						<path fill="#3C2415" d="M613.5,878.1h-46.3V851h46.3V878.1z M569.5,875.9h41.7v-22.6h-41.7V875.9z"/>
					</g>
					<g>
						<path d="M 568.400024 877 H 612.400024 V 901.9 H 568.400024 V 877 Z" fill="#E6E7E8"/>
						<path fill="#3C2415" d="M613.5,903.1h-46.3v-27.2h46.3V903.1z M569.5,900.8h41.7v-22.6h-41.7V900.8z"/>
					</g>
					<g>
						<path d="M 568.400024 877 H 578.400024 V 901.9 H 568.400024 V 877 Z" fill="#662D91"/>
						<path fill="#3C2415" d="M579.5,903.1h-12.2v-27.2h12.2V903.1z M569.5,900.8h7.7v-22.6h-7.7V900.8z"/>
					</g>
					<g>
						<path d="M 568.400024 827.200012 H 578.400024 V 852.100012 H 568.400024 V 827.200012 Z" fill="#662D91"/>
						<path fill="#3C2415" d="M579.5,853.2h-12.2V826h12.2V853.2z M569.5,851h7.7v-22.6h-7.7V851z"/>
					</g>
					<g>
						<path d="M 568.400024 752.5 H 578.400024 V 777.4 H 568.400024 V 752.5 Z" fill="#D22333"/>
						<path fill="#3C2415" d="M579.5,778.5h-12.2v-27.2h12.2V778.5z M569.5,776.2h7.7v-22.6h-7.7V776.2z"/>
					</g>
					<g>
						<path d="M 568.400024 702.700012 H 578.400024 V 727.600012 H 568.400024 V 702.700012 Z" fill="#D22333"/>
						<path fill="#3C2415" d="M579.5,728.7h-12.2v-27.2h12.2V728.7z M569.5,726.4h7.7v-22.6h-7.7V726.4z"/>
					</g>
					<g>
						<path d="M 568.400024 677.799988 H 578.400024 V 702.699987 H 568.400024 V 677.799988 Z" fill="#D22333"/>
						<path fill="#3C2415" d="M579.5,703.8h-12.2v-27.2h12.2V703.8z M569.5,701.5h7.7v-22.6h-7.7V701.5z"/>
					</g>
					<g>
						<path d="M 344.299988 901.900024 H 369.199987 V 944.500023 H 344.299988 V 901.900024 Z" fill="#E6E7E8"/>
						<path fill="#3C2415" d="M370.3,945.7h-27.2v-44.9h27.2V945.7z M345.4,943.4H368v-40.3h-22.6V943.4z"/>
					</g>
					<g>
						<path d="M 369.200012 901.900024 H 394.100012 V 944.500023 H 369.200012 V 901.900024 Z" fill="#E6E7E8"/>
						<path fill="#3C2415" d="M395.2,945.7H368v-44.9h27.2V945.7z M370.3,943.4h22.6v-40.3h-22.6V943.4z"/>
					</g>
					<g>
						<path d="M 394.100006 901.900024 H 419.000006 V 944.500023 H 394.100006 V 901.900024 Z" fill="#E6E7E8"/>
						<path fill="#3C2415" d="M420.1,945.7h-27.2v-44.9h27.2V945.7z M395.2,943.4h22.6v-40.3h-22.6V943.4z"/>
					</g>
					<g>
						<path d="M 419 901.900024 H 443.9 V 944.500023 H 419 V 901.900024 Z" fill="#E6E7E8"/>
						<path fill="#3C2415" d="M445,945.7h-27.2v-44.9H445V945.7z M420.1,943.4h22.6v-40.3h-22.6V943.4z"/>
					</g>
					<g>
						<path d="M 443.899994 901.900024 H 468.799994 V 944.500023 H 443.899994 V 901.900024 Z" fill="#E6E7E8"/>
						<path fill="#3C2415" d="M469.9,945.7h-27.2v-44.9h27.2V945.7z M445,943.4h22.6v-40.3H445V943.4z"/>
					</g>
					<g>
						<path d="M 468.799988 901.900024 H 493.699987 V 944.500023 H 468.799988 V 901.900024 Z" fill="#E6E7E8"/>
						<path fill="#3C2415" d="M494.8,945.7h-27.2v-44.9h27.2V945.7z M469.9,943.4h22.6v-40.3h-22.6V943.4z"/>
					</g>
					<g>
						<path d="M 493.700012 901.900024 H 518.600012 V 944.500023 H 493.700012 V 901.900024 Z" fill="#E6E7E8"/>
						<path fill="#3C2415" d="M519.7,945.7h-27.2v-44.9h27.2V945.7z M494.8,943.4h22.6v-40.3h-22.6V943.4z"/>
					</g>
					<g>
						<path d="M 518.599976 901.900024 H 543.499975 V 944.500023 H 518.599976 V 901.900024 Z" fill="#E6E7E8"/>
						<path fill="#3C2415" d="M544.6,945.7h-27.2v-44.9h27.2V945.7z M519.7,943.4h22.6v-40.3h-22.6V943.4z"/>
					</g>
					<g>
						<path d="M 543.5 901.900024 H 568.4 V 944.500023 H 543.5 V 901.900024 Z" fill="#E6E7E8"/>
						<path fill="#3C2415" d="M569.5,945.7h-27.2v-44.9h27.2V945.7z M544.6,943.4h22.6v-40.3h-22.6V943.4z"/>
					</g>
					<g>
						<path d="M 543.5 901.900024 H 568.4 V 911.500025 H 543.5 V 901.900024 Z" fill="#A17F45"/>
						<path fill="#3C2415" d="M569.5,912.7h-27.2v-11.9h27.2V912.7z M544.6,910.4h22.6v-7.3h-22.6V910.4z"/>
					</g>
					<g>
						<path d="M 493.700012 901.900024 H 518.600012 V 911.500025 H 493.700012 V 901.900024 Z" fill="#A17F45"/>
						<path fill="#3C2415" d="M519.7,912.7h-27.2v-11.9h27.2V912.7z M494.8,910.4h22.6v-7.3h-22.6V910.4z"/>
					</g>
					<g>
						<path d="M 419 901.900024 H 443.9 V 911.500025 H 419 V 901.900024 Z" fill="#8DC63F"/>
						<path fill="#3C2415" d="M445,912.7h-27.2v-11.9H445V912.7z M420.1,910.4h22.6v-7.3h-22.6V910.4z"/>
					</g>
					<g>
						<path d="M 369.200012 901.900024 H 394.100012 V 911.500025 H 369.200012 V 901.900024 Z" fill="#8DC63F"/>
						<path fill="#3C2415" d="M395.2,912.7H368v-11.9h27.2V912.7z M370.3,910.4h22.6v-7.3h-22.6V910.4z"/>
					</g>
					<g>
						<path d="M 344.299988 901.900024 H 369.199987 V 911.500025 H 344.299988 V 901.900024 Z" fill="#8DC63F"/>
						<path fill="#3C2415" d="M370.3,912.7h-27.2v-11.9h27.2V912.7z M345.4,910.4H368v-7.3h-22.6V910.4z"/>
					</g>
					<g>
						<path d="M 543.5 635.200012 H 568.4 V 677.800011 H 543.5 V 635.200012 Z" fill="#E6E7E8"/>
						<path fill="#3C2415" d="M569.5,678.9h-27.2V634h27.2V678.9z M544.6,676.6h22.6v-40.3h-22.6V676.6z"/>
					</g>
					<g>
						<path d="M 518.599976 635.200012 H 543.499975 V 677.800011 H 518.599976 V 635.200012 Z" fill="#E6E7E8"/>
						<path fill="#3C2415" d="M544.6,678.9h-27.2V634h27.2V678.9z M519.7,676.6h22.6v-40.3h-22.6V676.6z"/>
					</g>
					<g>
						<path d="M 493.700012 635.200012 H 518.600012 V 677.800011 H 493.700012 V 635.200012 Z" fill="#E6E7E8"/>
						<path fill="#3C2415" d="M519.7,678.9h-27.2V634h27.2V678.9z M494.8,676.6h22.6v-40.3h-22.6V676.6z"/>
					</g>
					<g>
						<path d="M 468.799988 635.200012 H 493.699987 V 677.800011 H 468.799988 V 635.200012 Z" fill="#E6E7E8"/>
						<path fill="#3C2415" d="M494.8,678.9h-27.2V634h27.2V678.9z M469.9,676.6h22.6v-40.3h-22.6V676.6z"/>
					</g>
					<g>
						<path d="M 443.899994 635.200012 H 468.799994 V 677.800011 H 443.899994 V 635.200012 Z" fill="#E6E7E8"/>
						<path fill="#3C2415" d="M469.9,678.9h-27.2V634h27.2V678.9z M445,676.6h22.6v-40.3H445V676.6z"/>
					</g>
					<g>
						<path d="M 419 635.200012 H 443.9 V 677.800011 H 419 V 635.200012 Z" fill="#E6E7E8"/>
						<path fill="#3C2415" d="M445,678.9h-27.2V634H445V678.9z M420.1,676.6h22.6v-40.3h-22.6V676.6z"/>
					</g>
					<g>
						<path d="M 394.100006 635.200012 H 419.000006 V 677.800011 H 394.100006 V 635.200012 Z" fill="#E6E7E8"/>
						<path fill="#3C2415" d="M420.1,678.9h-27.2V634h27.2V678.9z M395.2,676.6h22.6v-40.3h-22.6V676.6z"/>
					</g>
					<g>
						<path d="M 369.200012 635.200012 H 394.100012 V 677.800011 H 369.200012 V 635.200012 Z" fill="#E6E7E8"/>
						<path fill="#3C2415" d="M395.2,678.9H368V634h27.2V678.9z M370.3,676.6h22.6v-40.3h-22.6V676.6z"/>
					</g>
					<g>
						<path d="M 344.299988 635.200012 H 369.199987 V 677.800011 H 344.299988 V 635.200012 Z" fill="#E6E7E8"/>
						<path fill="#3C2415" d="M370.3,678.9h-27.2V634h27.2V678.9z M345.4,676.6H368v-40.3h-22.6V676.6z"/>
					</g>
					<g>
						<path d="M 344.299988 668.099976 H 369.199987 V 677.699976 H 344.299988 V 668.099976 Z" fill="#F15A29"/>
						<path fill="#3C2415" d="M370.3,678.9h-27.2V667h27.2V678.9z M345.4,676.6H368v-7.3h-22.6V676.6z"/>
					</g>
					<g>
						<path d="M 394.100006 668.099976 H 419.000006 V 677.699976 H 394.100006 V 668.099976 Z" fill="#F15A29"/>
						<path fill="#3C2415" d="M420.1,678.9h-27.2V667h27.2V678.9z M395.2,676.6h22.6v-7.3h-22.6V676.6z"/>
					</g>
					<g>
						<path d="M 468.799988 668.099976 H 493.699987 V 677.699976 H 468.799988 V 668.099976 Z" fill="#27AAE1"/>
						<path fill="#3C2415" d="M494.8,678.9h-27.2V667h27.2V678.9z M469.9,676.6h22.6v-7.3h-22.6V676.6z"/>
					</g>
					<g>
						<path d="M 493.700012 668.099976 H 518.600012 V 677.699976 H 493.700012 V 668.099976 Z" fill="#27AAE1"/>
						<path fill="#3C2415" d="M519.7,678.9h-27.2V667h27.2V678.9z M494.8,676.6h22.6v-7.3h-22.6V676.6z"/>
					</g>
					<g>
						<path d="M 543.5 668.099976 H 568.4 V 677.699976 H 543.5 V 668.099976 Z" fill="#27AAE1"/>
						<path fill="#3C2415" d="M569.5,678.9h-27.2V667h27.2V678.9z M544.6,676.6h22.6v-7.3h-22.6V676.6z"/>
					</g>
				</g>
				<path d="M 576.9000244140625 921.7999877929688 L 576.9000244140625 918 L 572.5 923.2000122070312 L 576.9000244140625 928.4000244140625 L 576.9000244140625 924.5999755859375 L 608.2000122070312 924.5999755859375 L 608.2000122070312 921.7999877929688 Z" fill="#BE1E2D"/>
				<g>
					<path fill="#808285" d="M403.6,927.7l0-0.8c-0.1-1.6,0.5-3.3,1.9-5c1-1.3,1.9-2.3,1.9-3.4c0-1.1-0.7-1.9-2.4-1.9&#10;&#9;&#9;&#9;&#9;&#9;&#9;c-1.1,0-2.4,0.4-3.2,1l-1.1-3.5c1.2-0.7,3.1-1.3,5.4-1.3c4.3,0,6.2,2.4,6.2,5c0,2.4-1.5,4.1-2.8,5.4c-1.2,1.3-1.7,2.6-1.6,4&#10;&#9;&#9;&#9;&#9;&#9;&#9;v0.6H403.6z M402.8,932.2c0-1.7,1.2-2.9,2.9-2.9c1.7,0,2.9,1.2,2.9,2.9c0,1.7-1.1,2.9-2.9,2.9&#10;&#9;&#9;&#9;&#9;&#9;&#9;C403.9,935.1,402.8,933.9,402.8,932.2z"/>
				</g>
				<g>
					<path fill="#808285" d="M594.4,817.8l-0.8,0c-1.6,0.1-3.3-0.5-5-1.9c-1.3-1-2.3-1.9-3.4-1.9c-1.1,0-1.9,0.7-1.9,2.4&#10;&#9;&#9;&#9;&#9;&#9;&#9;c0,1.1,0.4,2.4,1,3.2l-3.5,1.1c-0.7-1.2-1.3-3.1-1.3-5.4c0-4.3,2.4-6.2,5-6.2c2.4,0,4.1,1.5,5.4,2.8c1.3,1.2,2.6,1.7,4,1.6h0.6&#10;&#9;&#9;&#9;&#9;&#9;&#9;V817.8z M598.8,818.6c-1.7,0-2.9-1.2-2.9-2.9c0-1.7,1.2-2.9,2.9-2.9c1.7,0,2.9,1.1,2.9,2.9&#10;&#9;&#9;&#9;&#9;&#9;&#9;C601.8,817.4,600.5,818.6,598.8,818.6z"/>
				</g>
				<g>
					<path fill="#808285" d="M384.5,651.9l0,0.8c0.1,1.6-0.5,3.3-1.9,5c-1,1.3-1.9,2.3-1.9,3.4c0,1.1,0.7,1.9,2.4,1.9&#10;&#9;&#9;&#9;&#9;&#9;&#9;c1.1,0,2.4-0.4,3.2-1l1.1,3.5c-1.2,0.7-3.1,1.3-5.4,1.3c-4.3,0-6.2-2.4-6.2-5c0-2.4,1.5-4.1,2.8-5.4c1.2-1.3,1.7-2.6,1.6-4&#10;&#9;&#9;&#9;&#9;&#9;&#9;v-0.6H384.5z M385.3,647.5c0,1.7-1.2,2.9-2.9,2.9c-1.7,0-2.9-1.2-2.9-2.9c0-1.7,1.1-2.9,2.9-2.9&#10;&#9;&#9;&#9;&#9;&#9;&#9;C384.2,644.5,385.3,645.8,385.3,647.5z"/>
				</g>
				<g>
					<path fill="#808285" d="M318.4,737.1l0.8,0c1.6-0.1,3.3,0.5,5,1.9c1.3,1,2.3,1.9,3.4,1.9c1.1,0,1.9-0.7,1.9-2.4&#10;&#9;&#9;&#9;&#9;&#9;&#9;c0-1.1-0.4-2.4-1-3.2l3.5-1.1c0.7,1.2,1.3,3.1,1.3,5.4c0,4.3-2.4,6.2-5,6.2c-2.4,0-4.1-1.5-5.4-2.8c-1.3-1.2-2.6-1.7-4-1.6&#10;&#9;&#9;&#9;&#9;&#9;&#9;h-0.6V737.1z M314,736.3c1.7,0,2.9,1.2,2.9,2.9c0,1.7-1.2,2.9-2.9,2.9c-1.7,0-2.9-1.1-2.9-2.9C311,737.5,312.3,736.3,314,736.3&#10;&#9;&#9;&#9;&#9;&#9;&#9;z"/>
				</g>
				<path d="M 322.29998779296875 645.4000244140625 L 325.8999938964844 652.7000122070312 L 333.8999938964844 653.9000244140625 L 328.1000061035156 659.5 L 329.3999938964844 667.5 L 322.29998779296875 663.7999877929688 L 315.1000061035156 667.5 L 316.3999938964844 659.5 L 310.6000061035156 653.9000244140625 L 318.70001220703125 652.7000122070312 Z" fill="#F7941E"/>
				<path fill="#58595B" d="M307.5,915.6v16.7H337v-16.7H307.5z M311.9,917.1h1.2v13.5h-1.2V917.1z M311.4,930.7h-1.2v-13.5h1.2&#10;&#9;&#9;&#9;&#9;&#9;V930.7z M313.5,917.1h1.2v13.5h-1.2V917.1z M315.1,917.1h1.2v13.5h-1.2V917.1z M316.8,917.1h1.2v13.5h-1.2V917.1z M318.4,917.1&#10;&#9;&#9;&#9;&#9;&#9;h1.2v13.5h-1.2V917.1z M320,917.1h1.2v13.5H320V917.1z M321.6,917.1h1.2v13.5h-1.2V917.1z M323.3,917.1h1.2v13.5h-1.2V917.1z&#10;&#9;&#9;&#9;&#9;&#9; M324.9,917.1h1.2v13.5h-1.2V917.1z M326.5,917.1h1.2v13.5h-1.2V917.1z M328.1,917.1h1.2v13.5h-1.2V917.1z M329.8,917.1h1.2&#10;&#9;&#9;&#9;&#9;&#9;v13.5h-1.2V917.1z M331.4,917.1h1.2v13.5h-1.2V917.1z M333,917.1h1.2v13.5H333V917.1z M309.1,917.1h0.7v13.5h-0.7V917.1z&#10;&#9;&#9;&#9;&#9;&#9; M335.4,930.7h-0.8v-13.5h0.8V930.7z"/>
				<path d="M 606.200025 658.599976 A 15.8 5.2 0 0 1 590.400024 663.799975 A 15.8 5.2 0 0 1 574.600024 658.599976 A 15.8 5.2 0 0 1 590.400024 653.399976 A 15.8 5.2 0 0 1 606.200025 658.599976 Z" fill="#27AAE1"/>
				<path fill="#74D1F6" d="M590.4,648.2c-4.4,0-8,3.7-8,8.3c0,1,0.2,1.9,0.5,2.8c2.2,0.8,4.8,1.3,7.6,1.3c2.8,0,5.4-0.5,7.6-1.3&#10;&#9;&#9;&#9;&#9;&#9;c0.3-0.9,0.5-1.8,0.5-2.8C598.4,651.9,594.8,648.2,590.4,648.2z"/>
			</g><path fill="#3C2415" d="M381.5,764l-26.1-26.1l49-49l26.1,26.1L381.5,764z M358.6,737.9l22.9,22.9l45.8-45.8l-22.9-22.9&#10;&#9;&#9;&#9;&#9;L358.6,737.9z" transform="matrix(1, 0, 0, 1, 0, -7.105427357601002e-15)"/><path fill="#3C2415" d="M508.3,890.8l-26.1-26.1l49-49l26.1,26.1L508.3,890.8z M485.4,864.7l22.9,22.9l45.8-45.8l-22.9-22.9&#10;&#9;&#9;&#9;&#9;L485.4,864.7z" transform="matrix(1, 0, 0, 1, 0, -7.105427357601002e-15)"/><path fill="#3C2415" d="M413.5,836c-2.3-2.1-5.1-4.6-7-6.5l0,0c1.3,2.4,2.6,5,4,7.9l4.8,10.4l-1.5,1.5l-10-4.9&#10;&#9;&#9;&#9;&#9;&#9;c-3-1.5-5.6-2.9-7.9-4.3l0,0c1.9,2,4.4,4.7,6.6,7.2l6.3,7.1l-1.9,1.9l-14.6-16.8l2.6-2.6L405,842c2.6,1.3,4.8,2.5,6.9,3.7l0,0&#10;&#9;&#9;&#9;&#9;&#9;c-1.2-2-2.3-4.3-3.6-7l-4.8-10.4l2.6-2.6l16.6,14.7l-2,2L413.5,836z" transform="matrix(1, 0, 0, 1, 0, -7.105427357601002e-15)"/><path fill="#3C2415" d="M431.2,816c5.4,5.4,5,11.5,1,15.5c-4.2,4.2-10.3,3.8-15-0.9c-5-5-5.2-11.3-1-15.5&#10;&#9;&#9;&#9;&#9;&#9;C420.5,810.8,426.6,811.3,431.2,816z M419.3,828.4c3.4,3.4,8.2,4.6,11.4,1.3c3.2-3.2,2.1-8-1.5-11.5c-3.1-3.1-8-4.8-11.4-1.4&#10;&#9;&#9;&#9;&#9;&#9;C414.4,820.2,415.9,825,419.3,828.4z" transform="matrix(1, 0, 0, 1, 0, -7.105427357601002e-15)"/><path fill="#3C2415" d="M441.9,821.3l-15.7-15.7l2.2-2.2l12.9,2.9c3,0.7,5.6,1.4,7.9,2.3l0-0.1c-2.3-1.9-4.2-3.8-6.7-6.2&#10;&#9;&#9;&#9;&#9;&#9;l-6.6-6.6l1.9-1.9l15.7,15.7l-2,2l-12.9-3c-2.8-0.7-5.7-1.4-8.1-2.3l0,0.1c2.1,1.9,4,3.7,6.6,6.3l6.7,6.7L441.9,821.3z" transform="matrix(1, 0, 0, 1, 0, -7.105427357601002e-15)"/><path fill="#3C2415" d="M462.6,784.7c5.4,5.4,5,11.5,1,15.5c-4.2,4.2-10.3,3.8-15-0.9c-5-5-5.2-11.3-1-15.5&#10;&#9;&#9;&#9;&#9;&#9;C451.8,779.5,457.9,780,462.6,784.7z M450.6,797.1c3.4,3.4,8.2,4.6,11.4,1.3c3.2-3.2,2.1-8-1.5-11.5c-3.1-3.1-8-4.8-11.4-1.4&#10;&#9;&#9;&#9;&#9;&#9;C445.7,788.9,447.2,793.7,450.6,797.1z" transform="matrix(1, 0, 0, 1, 0, -7.105427357601002e-15)"/><path fill="#3C2415" d="M457.7,774.5c0.8-1.1,2-2.6,3.6-4.2c2-2,3.9-3,5.7-3.1c1.6-0.1,3.3,0.5,4.6,1.9c1.4,1.4,2.1,3,2.1,4.6&#10;&#9;&#9;&#9;&#9;&#9;c0,2.2-1.1,4.5-3.1,6.5c-0.6,0.6-1.2,1.1-1.8,1.5l6.3,6.3l-2,2L457.7,774.5z M467.3,780.1c0.6-0.3,1.2-0.8,1.8-1.5&#10;&#9;&#9;&#9;&#9;&#9;c2.4-2.4,2.7-5.1,0.6-7.3c-2.1-2.1-4.6-1.6-6.8,0.6c-0.9,0.9-1.5,1.6-1.7,2.1L467.3,780.1z" transform="matrix(1, 0, 0, 1, 0, -7.105427357601002e-15)"/><path fill="#3C2415" d="M490.9,756.3c5.4,5.4,5,11.5,1,15.5c-4.2,4.2-10.3,3.8-15-0.9c-5-5-5.2-11.3-1-15.5&#10;&#9;&#9;&#9;&#9;&#9;C480.2,751.1,486.3,751.6,490.9,756.3z M479,768.7c3.4,3.4,8.2,4.6,11.4,1.3c3.2-3.2,2.1-8-1.5-11.5c-3.1-3.1-8-4.8-11.4-1.4&#10;&#9;&#9;&#9;&#9;&#9;C474.1,760.5,475.6,765.3,479,768.7z" transform="matrix(1, 0, 0, 1, 0, -7.105427357601002e-15)"/><path fill="#3C2415" d="M485.9,746l2-2l14,14l6.7-6.7l1.7,1.7l-8.7,8.7L485.9,746z" transform="matrix(1, 0, 0, 1, 0, -7.105427357601002e-15)"/><path fill="#3C2415" d="M514.1,749.1l-6.6-6.6l-14-4l2.3-2.3l6.5,2.1c1.8,0.6,3.2,1.1,4.8,1.7l0,0c-0.6-1.4-1.1-3-1.7-4.8&#10;&#9;&#9;&#9;&#9;&#9;l-2.1-6.6l2.3-2.3l3.8,14.2l6.7,6.7L514.1,749.1z" transform="matrix(1, 0, 0, 1, 0, -7.105427357601002e-15)"/>
</svg>